<!-- Generated by IcoMoon.io -->
<svg version="1.1" xmlns="http://www.w3.org/2000/svg" width="32" height="32" viewBox="0 0 32 32">
<title>bobber</title>
<path d="M26.656 13.966h-1.132c-0.73 0-1.443 0.151-2.098 0.43 0.001-0.036 0.004-0.072 0.004-0.109 0-0.676-0.55-1.226-1.226-1.226h-1.923c-0.252 0-0.503-0.083-0.705-0.234l-0.508-0.379c-0.314-0.235-0.702-0.334-1.091-0.277s-0.732 0.261-0.967 0.575l-0.018 0.024-3.276-2.415c-0.565-0.417-1.281-0.584-1.972-0.465l0.517-0.821c0.002-0.003 0.003-0.005 0.005-0.008 0.147-0.244 0.438-0.347 0.699-0.261-0.064 0.48 0.164 0.973 0.612 1.222l1.632 0.907c0.18 0.1 0.383 0.153 0.588 0.153 0.44 0 0.847-0.239 1.061-0.624 0.324-0.584 0.113-1.324-0.471-1.649l-1.633-0.907c-0.429-0.238-0.94-0.187-1.311 0.088-0.709-0.342-1.56-0.095-1.974 0.586l-0.463 0.736c-0.189-0.377-0.51-0.679-0.928-0.849l-1.289-0.525c-0.225-0.092-0.479-0.065-0.681 0.070s-0.322 0.362-0.322 0.604v3.028c0 0.52 0.566 0.852 1.003 0.675l0.438-0.179-1.422 2.258c-0.693-0.329-1.467-0.513-2.284-0.513h-1.133c-1.684 0-3.236 0.77-4.258 2.112-0.149 0.196-0.174 0.454-0.064 0.675s0.331 0.358 0.577 0.358h0.653c-0.588 0.784-0.913 1.742-0.913 2.747 0 2.528 2.056 4.584 4.584 4.584 1.737 0 3.307-0.972 4.086-2.503h1.175c0.355 0 0.644-0.289 0.644-0.644v-1.98c0-1.801-0.895-3.395-2.262-4.365l1.362-2.162 1.938 7.907c-0.174 0.068-0.298 0.237-0.298 0.435 0 0.258 0.209 0.467 0.467 0.467h0.070c0.299 0.769 1.039 1.286 1.883 1.286h5.531c0.852 0 1.617-0.539 1.903-1.341l0.195-0.546c0.508 1.979 2.306 3.446 4.441 3.446 2.528 0 4.584-2.056 4.584-4.584 0-0.012-0.001-0.024-0.001-0.036h0.669c0.175 0 0.345-0.073 0.466-0.199s0.186-0.3 0.177-0.476c-0.135-2.857-2.482-5.095-5.343-5.095zM13.922 8.826c0.051-0.092 0.147-0.144 0.245-0.144 0.046 0 0.092 0.011 0.135 0.035l1.632 0.907c0.135 0.075 0.184 0.246 0.109 0.381-0.049 0.089-0.143 0.144-0.245 0.144-0.048 0-0.093-0.012-0.135-0.035l-1.632-0.907c-0.135-0.075-0.184-0.246-0.109-0.38zM8.719 11.335v-2.419l1.007 0.41c0.337 0.137 0.538 0.436 0.538 0.8s-0.201 0.662-0.538 0.8zM4.969 23.423c-2.013 0-3.651-1.638-3.651-3.652 0-1.059 0.453-2.052 1.247-2.747h0.153c0.258 0 0.467-0.209 0.467-0.467s-0.209-0.466-0.467-0.466h-1.438c0.823-0.82 1.927-1.28 3.11-1.28h1.132c0.634 0 1.237 0.135 1.782 0.377l-0.785 1.247c-0.476-0.22-1.005-0.344-1.563-0.344-0.258 0-0.467 0.209-0.467 0.466s0.209 0.467 0.467 0.467c0.375 0 0.733 0.074 1.060 0.209l-0.12 0.19c-0.287-0.114-0.6-0.177-0.928-0.177-1.392 0-2.525 1.133-2.525 2.525s1.133 2.525 2.525 2.525 2.525-1.133 2.525-2.525c0-0.73-0.312-1.389-0.809-1.85l0.123-0.195c0.583 0.514 0.951 1.266 0.951 2.102v0.79c0 0.363 0.158 0.689 0.408 0.915-0.637 1.159-1.855 1.89-3.199 1.89zM6.562 19.772c0 0.878-0.714 1.593-1.593 1.593s-1.593-0.714-1.593-1.593c0-0.878 0.714-1.592 1.593-1.592 0.144 0 0.284 0.020 0.417 0.056l-0.811 1.288c-0.137 0.218-0.072 0.506 0.146 0.643 0.077 0.049 0.163 0.072 0.248 0.072 0.155 0 0.306-0.077 0.395-0.218l0.811-1.287c0.241 0.279 0.387 0.642 0.387 1.039zM9.94 19.23v1.69h-0.946c-0.166 0-0.302-0.136-0.302-0.302v-0.79c0-1.169-0.54-2.213-1.383-2.899l0.803-1.275c1.106 0.804 1.827 2.106 1.827 3.575zM12.209 10.784c0.341 0.004 0.671 0.114 0.954 0.322l3.352 2.471h-4.188c-0.816 0-1.481-0.664-1.482-1.48l-0.001-0.624c0.312-0.437 0.828-0.695 1.366-0.688zM15.583 16.105c0 0.609-0.495 1.104-1.104 1.104s-1.104-0.495-1.104-1.104 0.495-1.104 1.104-1.104c0.609 0 1.104 0.495 1.104 1.104zM19.564 21.865h-5.531c-0.315 0-0.603-0.134-0.804-0.354h6.137c0.258 0 0.466-0.209 0.466-0.467s-0.209-0.466-0.466-0.466h-6.502l-1.542-6.288c0.306 0.141 0.646 0.22 1.004 0.22h0.888c-0.47 0.374-0.772 0.949-0.772 1.595 0 1.123 0.914 2.037 2.037 2.037s2.037-0.914 2.037-2.037c0-0.646-0.302-1.221-0.772-1.595h1.087c0.237 0 0.45-0.095 0.601-0.256l2.017 1.487c0.207 0.153 0.5 0.109 0.652-0.099s0.109-0.499-0.099-0.652l-2.26-1.666 0.014-0.019c0.086-0.115 0.211-0.19 0.354-0.21s0.283 0.015 0.398 0.101l0.508 0.379c0.363 0.271 0.811 0.419 1.263 0.419h1.923c0.162 0 0.293 0.132 0.293 0.293 0 0.262-0.063 0.52-0.183 0.751-0.443 0.333-0.838 0.735-1.165 1.199-0.232 0.33-0.16 0.778 0.165 1.021l0.523 0.39-0.579 1.621h-4.241c-0.012 0-0.048 0-0.070-0.043s0.001-0.072 0.008-0.082l1.108-1.44c0.157-0.204 0.119-0.497-0.085-0.654s-0.497-0.119-0.654 0.085l-1.109 1.44c-0.237 0.307-0.277 0.714-0.106 1.063s0.519 0.564 0.907 0.564h3.907l-0.335 0.939c-0.154 0.432-0.566 0.722-1.025 0.722zM26.103 23.423c-1.867 0-3.411-1.409-3.625-3.22h1.137c0.205 1.188 1.242 2.094 2.488 2.094 1.392 0 2.525-1.133 2.525-2.525s-1.133-2.525-2.525-2.525c-1.221 0-2.242 0.871-2.475 2.024h-1.142c0.045-0.324 0.133-0.641 0.262-0.941l0.065 0.048c0.327 0.244 0.792 0.178 1.037-0.147 0.536-0.711 1.352-1.118 2.24-1.118 1.162 0 2.217 0.731 2.625 1.82 0.166 0.444 0.575 0.753 1.039 0.798 0 0.014 0.001 0.028 0.001 0.042 0 2.013-1.638 3.652-3.651 3.652zM27.636 20.203c-0.189 0.669-0.804 1.161-1.533 1.161s-1.344-0.492-1.533-1.161zM24.592 19.27c0.211-0.633 0.808-1.091 1.511-1.091s1.301 0.458 1.511 1.091zM29.871 18.803c-0.125 0-0.239-0.080-0.283-0.198-0.543-1.451-1.949-2.426-3.499-2.426-1.12 0-2.154 0.486-2.867 1.341l-1.2-0.896c0.835-1.084 2.13-1.725 3.501-1.725h1.132c2.261 0 4.133 1.692 4.387 3.904z"></path>
<path d="M15.078 19.27c0 0.331-0.268 0.598-0.598 0.598s-0.599-0.268-0.599-0.598 0.268-0.598 0.599-0.598c0.33 0 0.598 0.268 0.598 0.598z"></path>
</svg>
