<!-- Generated by IcoMoon.io -->
<svg version="1.1" xmlns="http://www.w3.org/2000/svg" width="32" height="32" viewBox="0 0 32 32">
<title>cafe</title>
<path d="M26.5 15c-0.001 0-0.002 0-0.003 0-0.477 0-0.937 0.074-1.368 0.212l0.032-0.009-0.661-1.322v-0.382h1.5c0.276 0 0.5-0.224 0.5-0.5v0-3c0-0.276-0.224-0.5-0.5-0.5v0h-1.5v-1c0-0.276-0.224-0.5-0.5-0.5v0h-5v1h2.5v2h-1v-0.5c0-0.276-0.224-0.5-0.5-0.5v0h-3c-0.057 0-0.111 0.010-0.162 0.027l0.004-0.001-3 1c-0.2 0.068-0.342 0.255-0.342 0.474v0.5h-4.5c-0.828 0-1.5 0.672-1.5 1.5v0 0.469c-0.067-0.003-0.145-0.004-0.223-0.004-2.152 0-4.050 1.084-5.179 2.736l-0.014 0.022 0.832 0.555c0.985-1.407 2.598-2.315 4.423-2.315 0.208 0 0.414 0.012 0.616 0.035l-0.025-0.002v-0.008c0.019 0.005 0.043 0.010 0.067 0.013l0.003 0h0.723l-0.537 1.182c-0.354-0.115-0.761-0.181-1.184-0.181-0.001 0-0.001 0-0.002 0h0c-1.85 0.007-3.404 1.265-3.861 2.972l-0.006 0.028h-1.633c-0.276 0-0.5 0.224-0.5 0.5v0 2c0 0.276 0.224 0.5 0.5 0.5v0h2.050c0.699 1.202 1.982 1.998 3.45 1.998s2.751-0.795 3.44-1.979l0.010-0.019h9.050c0.828 0 1.5-0.672 1.5-1.5v0-5.5h2.941l0.305 0.611c-1.343 0.793-2.23 2.233-2.23 3.881 0 2.481 2.011 4.491 4.492 4.491s4.492-2.011 4.492-4.492c0-2.481-2.011-4.492-4.492-4.492-0.003 0-0.006 0-0.009 0h0zM25.5 10.5v2h-1v-2zM22.5 9h1v2h-1zM14.5 11.861l2.581-0.861h2.419v3h-5zM8.5 13.5c0-0.276 0.224-0.5 0.5-0.5v0h4.5v1h-5zM12 15v4h-1.133c-0.269-1.022-0.904-1.864-1.753-2.397l-0.017-0.010 0.725-1.594zM8.727 19c-0.127-0.216-0.285-0.398-0.471-0.547l-0.004-0.003 0.424-0.931c0.524 0.358 0.923 0.865 1.138 1.461l0.007 0.021zM7 17c0.273 0 0.537 0.037 0.787 0.105l-0.021-0.005-0.425 0.934c-0.102-0.020-0.22-0.033-0.34-0.035h-0.001c-0 0-0.001 0-0.001 0-0.735 0-1.376 0.398-1.721 0.991l-0.005 0.009h-1.096c0.426-1.172 1.527-1.995 2.821-2h0.001zM2 20h10v1h-10zM7 23c-0.005 0-0.011 0-0.017 0-0.883 0-1.675-0.385-2.219-0.997l-0.003-0.003h4.477c-0.546 0.615-1.339 1-2.222 1-0.006 0-0.012-0-0.018-0h0.001zM13 21v-3h4.5v3zM19.5 21h-1v-3h1.5v2.5c0 0.276-0.224 0.5-0.5 0.5v0zM20 17h-7v-2h7zM23.5 14h-3v-2h3zM26.5 23c-0.001 0-0.002 0-0.003 0-1.931 0-3.497-1.565-3.497-3.497 0-1.265 0.672-2.373 1.678-2.987l0.015-0.009 0.45 0.9c-0.683 0.452-1.127 1.217-1.127 2.086 0 1.377 1.116 2.494 2.494 2.494s2.494-1.116 2.494-2.494c0-1.377-1.116-2.494-2.494-2.494-0.004 0-0.007 0-0.011 0h0.001c-0.15 0.002-0.295 0.018-0.435 0.045l0.016-0.003-0.463-0.925c0.269-0.074 0.578-0.117 0.897-0.117 1.933 0 3.5 1.567 3.5 3.5s-1.567 3.5-3.5 3.5c-0.005 0-0.010 0-0.016-0h0.001zM26.55 20.224l0.895-0.447-0.886-1.77c0.806 0.032 1.448 0.693 1.448 1.504 0 0.831-0.674 1.505-1.505 1.505s-1.505-0.674-1.505-1.505c0-0.488 0.233-0.922 0.593-1.197l0.004-0.003z"></path>
<path d="M17.5 12h1v1h-1v-1z"></path>
<path d="M20.5 23h2v1h-2v-1z"></path>
<path d="M18.5 23h1v1h-1v-1z"></path>
<path d="M11 23h1.5v1h-1.5v-1z"></path>
</svg>
