<!-- Generated by IcoMoon.io -->
<svg version="1.1" xmlns="http://www.w3.org/2000/svg" width="32" height="32" viewBox="0 0 32 32">
<title>exhaust</title>
<path d="M8.774 9.653c-0.602-0.313-1.317-0.322-1.927-0.025-0.018-0.083-0.040-0.165-0.067-0.245-0.377-1.121-1.592-1.724-2.713-1.347-0.62 0.209-1.11 0.689-1.332 1.304-1.137-0.328-2.323 0.328-2.651 1.465-0.247 0.857 0.063 1.778 0.779 2.311-0.507 1.057-0.071 2.325 0.979 2.845 0.59 0.29 1.282 0.29 1.872 0 0.23 1.157 1.354 1.908 2.511 1.679 0.655-0.13 1.211-0.559 1.503-1.159 0.102-0.232-0.003-0.503-0.235-0.605-0.216-0.095-0.469-0.011-0.585 0.195-0.339 0.585-1.087 0.785-1.672 0.446-0.481-0.279-0.714-0.846-0.567-1.382 0.063-0.219-0.031-0.453-0.226-0.569-0.209-0.122-0.477-0.060-0.612 0.141-0.363 0.57-1.119 0.739-1.689 0.376-0.537-0.341-0.723-1.037-0.428-1.6 0.044-0.085 0.097-0.166 0.159-0.239 0.084-0.114 0.111-0.261 0.073-0.398-0.039-0.142-0.14-0.259-0.275-0.318-0.619-0.272-0.9-0.994-0.628-1.613s0.994-0.9 1.613-0.628c0.042 0.018 0.083 0.039 0.122 0.062l0.061 0.043c0.216 0.132 0.499 0.064 0.631-0.152 0.040-0.065 0.063-0.139 0.067-0.215 0.039-0.675 0.617-1.19 1.292-1.152s1.19 0.617 1.152 1.292c-0.009 0.164-0.052 0.324-0.125 0.472-0.032 0.063-0.048 0.132-0.049 0.202 0.002 0.254 0.21 0.457 0.463 0.455 0.172-0.002 0.329-0.099 0.406-0.253 0.282-0.614 1.009-0.883 1.623-0.601s0.883 1.009 0.601 1.623c-0.010 0.023-0.022 0.045-0.034 0.068-0.124 0.221-0.046 0.501 0.175 0.625s0.501 0.046 0.625-0.175c0.007-0.013 0.014-0.027 0.020-0.041 0.546-1.050 0.137-2.343-0.912-2.888z"></path>
<path d="M31.99 16.537c-0.138-2.093-1.358-3.963-3.219-4.932l0.269-0.551c0.124-0.221 0.046-0.501-0.175-0.625s-0.501-0.046-0.625 0.175c-0.007 0.013-0.014 0.027-0.020 0.041l-0.465 0.936-0.728 1.469-0.49 0.863c-0.11 0.226-0.018 0.5 0.208 0.612 0.226 0.11 0.5 0.018 0.612-0.208l0.226-0.453c1.726 1.011 2.324 3.218 1.346 4.963-0.796 1.836-2.916 2.696-4.767 1.934l0.214-0.428c0.141-0.27 0.169-0.584 0.080-0.875-0.068-0.212-0.217-0.389-0.416-0.49l-11.4-5.636c-0.244-0.124-0.533-0.124-0.777 0-0.22 0.121-0.397 0.307-0.508 0.532l-0.135 0.275-0.991-0.496c-0.226-0.11-0.5-0.018-0.612 0.208l-0.012 0.024-0.863 1.738c-0.11 0.226-0.018 0.5 0.208 0.612l0.991 0.496-0.135 0.275c-0.104 0.228-0.136 0.482-0.092 0.728 0.047 0.264 0.215 0.49 0.453 0.612l11.406 5.654c0.112 0.056 0.236 0.085 0.361 0.086 0.4-0.015 0.758-0.251 0.93-0.612l0.19-0.386c0.825 0.366 1.716 0.562 2.619 0.575 1.16 0 2.294-0.347 3.255-0.997 2.025-1.359 3.187-3.683 3.060-6.119zM9.717 15.613l0.508-0.918 0.612 0.288-0.508 0.918-0.612-0.288zM22.946 21.163l-0.563 1.132-0.386 0.777c-0.023 0.049-0.059 0.092-0.104 0.122l-11.296-5.611c-0.002-0.053 0.011-0.106 0.037-0.153l0.337-0.685 0.428-0.869 0.765-1.579c0.025-0.050 0.063-0.092 0.11-0.122l11.32 5.611c0.002 0.053-0.011 0.106-0.037 0.153l-0.612 1.224zM28.405 21.867c-1.478 0.975-3.355 1.116-4.963 0.373l0.281-0.575 0.067-0.055c2.305 0.969 4.963-0.073 5.997-2.35 0.55-1.070 0.688-2.305 0.386-3.47-0.325-1.155-1.096-2.135-2.142-2.723l0.288-0.575 0.037-0.067c1.563 0.83 2.585 2.408 2.705 4.173 0.083 2.097-0.921 4.088-2.656 5.269z"></path>
</svg>
