<!-- Generated by IcoMoon.io -->
<svg version="1.1" xmlns="http://www.w3.org/2000/svg" width="32" height="32" viewBox="0 0 32 32">
<title>gas</title>
<path d="M28.157 4.749c0.259 0 0.469-0.21 0.469-0.469v-1.619c0-0.755-0.614-1.369-1.369-1.369-13.564 0-12.733-0.059-12.929 0.137l-2.683 2.683-0.432-0.432c0.383-0.415 0.366-1.052-0.029-1.447l-1.928-1.928c-0.198-0.198-0.46-0.306-0.74-0.306s-0.542 0.109-0.74 0.306l-4.095 4.095c-0.408 0.408-0.408 1.072 0 1.48l1.928 1.928c0.198 0.198 0.46 0.306 0.74 0.306 0.265 0 0.514-0.099 0.707-0.277l0.432 0.432c-3.375 3.375-3.271 3.195-3.271 3.465v18.896c0 0.755 0.614 1.369 1.369 1.369h21.671c0.755 0 1.369-0.614 1.369-1.369v-24.788c0-0.259-0.21-0.469-0.469-0.469s-0.469 0.21-0.469 0.469v24.788c0 0.238-0.193 0.431-0.431 0.431h-21.671c-0.238 0-0.431-0.193-0.431-0.431v-18.702c0.418-0.418 9.698-9.699 9.698-9.699h12.403c0.238 0 0.431 0.193 0.431 0.431v1.619c0 0.259 0.21 0.469 0.469 0.469zM8.515 0.938c0.021 0 0.050 0.005 0.077 0.032 1.988 1.988 2.036 1.975 1.928 2.082l-0.248 0.248-2.082-2.082c0.258-0.258 0.262-0.28 0.325-0.28zM7.527 1.88l2.082 2.082-0.305 0.305-2.082-2.082 0.305-0.305zM6.56 2.848l2.082 2.082-0.305 0.305-2.082-2.082 0.305-0.305zM6.349 7.178c-0.021 0-0.051-0.006-0.077-0.032l-1.928-1.928c-0.042-0.043-0.043-0.111-0-0.154l0.281-0.281 2.082 2.082c-0.295 0.295-0.296 0.313-0.358 0.313zM7.37 6.202l-2.082-2.082 0.305-0.305 2.082 2.082-0.305 0.305zM8.151 7.607l-0.43-0.43c0.273-0.273 2.479-2.479 2.831-2.831l0.43 0.43-2.831 2.831z"></path>
<path d="M24.419 3.893h-7.584c-0.995 0-1.805 0.81-1.805 1.805s0.81 1.805 1.805 1.805h7.584c0.995 0 1.805-0.81 1.805-1.805s-0.81-1.805-1.805-1.805zM24.419 6.564h-7.584c-0.478 0-0.867-0.389-0.867-0.867s0.389-0.867 0.867-0.867h7.584c0.478 0 0.867 0.389 0.867 0.867s-0.389 0.867-0.867 0.867z"></path>
<path d="M24.658 26.288l-6.42-7.032 4.090-4.48c0.175-0.191 0.161-0.488-0.030-0.662s-0.488-0.161-0.662 0.030l-4.379 4.796c-0.163 0.179-0.163 0.453 0 0.632 7.26 7.952 6.799 7.389 6.79 7.573-0.013 0.279-0.357 0.4-0.543 0.197l-6.613-7.243c-0.186-0.204-0.507-0.203-0.692 0-7.151 7.832-6.646 7.345-6.844 7.345-0.269 0-0.415-0.322-0.231-0.523l6.709-7.348c0.163-0.179 0.163-0.453 0-0.632-7.26-7.952-6.799-7.389-6.79-7.573 0.004-0.083 0.040-0.16 0.102-0.217s0.142-0.085 0.225-0.081c0.083 0.004 0.16 0.040 0.217 0.101 7.103 7.78 6.663 7.396 6.959 7.396s-0.149 0.389 6.959-7.396c0.114-0.125 0.311-0.139 0.441-0.020 0.128 0.116 0.137 0.314 0.020 0.441l-1.298 1.422c-0.175 0.191-0.161 0.488 0.030 0.662s0.488 0.161 0.662-0.030l1.298-1.422c0.466-0.51 0.43-1.3-0.080-1.766-0.516-0.471-1.305-0.425-1.766 0.080l-6.266 6.864-6.267-6.864c-0.752-0.823-2.122-0.319-2.172 0.786-0.015 0.334 0.1 0.653 0.326 0.9l6.42 7.032-6.42 7.032c-0.727 0.796-0.167 2.093 0.923 2.093 0.351 0 0.687-0.148 0.923-0.407l6.266-6.864 6.266 6.864c0.236 0.259 0.573 0.407 0.923 0.407 1.091 0 1.649-1.298 0.923-2.093z"></path>
<path d="M20.457 28.783h-7.825c-0.259 0-0.469 0.21-0.469 0.469s0.21 0.469 0.469 0.469h7.825c0.259 0 0.469-0.21 0.469-0.469s-0.21-0.469-0.469-0.469z"></path>
</svg>
