<!-- Generated by IcoMoon.io -->
<svg version="1.1" xmlns="http://www.w3.org/2000/svg" width="32" height="32" viewBox="0 0 32 32">
<title>helmet</title>
<path d="M31.054 24.995c0.475-3.022 0.499-6.392 0.066-9.489-0.066-0.47-0.142-0.928-0.226-1.376-0.002-0.013-0.004-0.026-0.007-0.039-0.448-2.357-1.157-4.411-2.116-6.117-0.008-0.014-0.017-0.028-0.026-0.042-0.003-0.005-0.006-0.010-0.009-0.015-1.177-1.917-2.736-3.534-4.634-4.805-1.763-1.181-3.785-2.044-6.008-2.564-3.341-0.78-7.314-0.724-10.629 0.151-0.334 0.088-0.533 0.43-0.445 0.765s0.43 0.533 0.764 0.445c0.743-0.196 1.521-0.348 2.317-0.456 4.186 0.834 7.928 2.493 10.825 4.802 2.211 1.762 3.773 3.827 4.416 5.802l-8.524-2.621c-1.839-0.566-3.445-0.126-4.405 1.206-1.19 1.65-1.052 4.25 0.327 6.181 2.924 4.095 6.222 6.118 16.586 10.097-0.105 0.36-0.216 0.696-0.319 0.947-0.248 0.464-2.136 2.46-3.459 2.831-0.257 0.072-0.451 0.069-0.575-0.008-0.017-0.011-0.034-0.020-0.051-0.029l-2.602-1.301s-0-0-0-0 0 0-0 0l-5.62-2.811c-0-0-0.001-0-0.001-0.001-1.52-0.76-5.143-3.297-8.438-6.557-2.707-2.677-5.93-6.574-5.972-9.975 0.271-1.234 0.687-2.28 1.257-3.164 0.141-0.218 0.132-0.501-0.022-0.71l-1.411-1.913c0.533-0.292 1.082-0.572 1.715-0.875 0.312-0.149 0.443-0.523 0.294-0.834s-0.523-0.443-0.834-0.294c-0.905 0.433-1.649 0.823-2.411 1.264-0.154 0.089-0.263 0.24-0.299 0.414s0.003 0.356 0.109 0.499l1.581 2.144c-0.544 0.939-0.945 2.018-1.212 3.257-0.003 0.012-0.006 0.024-0.008 0.037-0.144 0.674-0.249 1.395-0.314 2.169-0.205 2.424 0.003 5.005 0.169 7.079 0.002 0.029 0.007 0.057 0.013 0.084 0.074 0.568 0.422 1.073 0.928 1.343-0.106 0.463-0.083 0.949 0.072 1.413 0.222 0.667 0.689 1.207 1.315 1.52l15.845 7.925c0.376 0.188 0.776 0.277 1.171 0.277 0.762 0 1.501-0.334 2.006-0.927l2.088 1.044c0.26 0.156 0.554 0.233 0.878 0.233 0.217 0 0.447-0.035 0.689-0.105 1.755-0.504 3.911-2.834 4.232-3.493 0.005-0.011 0.010-0.021 0.014-0.032 0.182-0.433 0.372-1.060 0.532-1.668 0-0.002 0.001-0.004 0.001-0.006 0.184-0.7 0.327-1.374 0.369-1.701zM7.379 20.88c0.786 0.777 1.591 1.514 2.385 2.2l-6.872-3.437s0-0-0-0l-0.45-0.225c-0.167-0.084-0.275-0.245-0.29-0.431-0.002-0.023-0.005-0.046-0.009-0.068-0.128-1.595-0.277-3.49-0.238-5.348 1.209 2.705 3.474 5.332 5.475 7.31zM19.633 30.253l-15.845-7.925c-0.327-0.163-0.571-0.446-0.688-0.796-0.046-0.139-0.069-0.281-0.071-0.422l18.035 9.020c-0.403 0.296-0.954 0.362-1.432 0.123zM21.705 5.275c-2.108-1.68-4.633-3.032-7.437-3.996 1.219 0.063 2.418 0.224 3.541 0.486 3.027 0.708 7.194 2.462 9.86 6.804 0.003 0.005 0.006 0.010 0.009 0.015 0.007 0.012 0.014 0.024 0.021 0.035 0.746 1.336 1.33 2.91 1.746 4.697l-2.691-0.827c-0.535-2.487-2.313-5.034-5.050-7.215zM13.758 16.095c-1.059-1.484-1.201-3.514-0.33-4.723 0.636-0.882 1.709-1.146 3.022-0.742l1.956 0.602-1.24 8.432c-1.388-1.062-2.426-2.193-3.408-3.569zM18.311 20.473l1.305-8.869 10.114 3.11c0.055 0.316 0.106 0.637 0.152 0.965 0.416 2.982 0.394 6.225-0.064 9.131-0.001 0.006-0.002 0.013-0.003 0.019-0.023 0.182-0.085 0.5-0.171 0.872-5.477-2.106-8.903-3.639-11.332-5.228z"></path>
<path d="M5.137 2.721c0.072 0 0.146-0.013 0.218-0.040l0.014-0.005c0.323-0.123 0.486-0.484 0.363-0.807s-0.484-0.486-0.807-0.363c-0 0-0.007 0.002-0.008 0.003-0.323 0.121-0.487 0.481-0.366 0.804 0.094 0.252 0.332 0.407 0.586 0.407z"></path>
<path d="M4.627 4.313c-0.205-0.278-0.597-0.337-0.875-0.132s-0.337 0.597-0.132 0.875l0.915 1.241c0.123 0.166 0.312 0.254 0.504 0.254 0.129 0 0.259-0.040 0.371-0.122 0.278-0.205 0.337-0.597 0.132-0.875z"></path>
<path d="M5.869 4.228l0.915 1.241c0.123 0.166 0.312 0.254 0.504 0.254 0.129 0 0.259-0.040 0.371-0.122 0.278-0.205 0.337-0.597 0.132-0.875l-0.915-1.241c-0.205-0.278-0.597-0.337-0.875-0.132s-0.337 0.597-0.132 0.875z"></path>
<path d="M21.117 27.875c0.090 0.045 0.185 0.066 0.278 0.066 0.23 0 0.451-0.127 0.56-0.347 0.154-0.309 0.028-0.685-0.281-0.839l-0.013-0.006c-0.309-0.154-0.685-0.028-0.839 0.281s-0.028 0.685 0.282 0.839z"></path>
<path d="M25.020 29.827c0.090 0.045 0.185 0.066 0.28 0.066 0.229 0 0.45-0.127 0.56-0.346 0.155-0.309 0.029-0.685-0.28-0.839l-2.296-1.148c-0.309-0.155-0.685-0.029-0.839 0.28s-0.029 0.685 0.28 0.839z"></path>
</svg>
