<!-- Generated by IcoMoon.io -->
<svg version="1.1" xmlns="http://www.w3.org/2000/svg" width="32" height="32" viewBox="0 0 32 32">
<title>key</title>
<path d="M30.032 7.011l-5.723-5.746c-1.687-1.687-3.716-1.687-5.396 0l-8.6 8.615c-0.552 0.551-0.553 1.445-0.002 1.997 0.001 0.001 0.002 0.002 0.002 0.002l1.933 1.933-2.282 2.26c-0.217 0.218-0.217 0.57 0 0.788l0.58 0.58-9.663 9.663c-0.103 0.103-0.161 0.241-0.164 0.387l-0.015 3.947c-0.004 0.308 0.242 0.561 0.55 0.565 0.002 0 0.005 0 0.008 0v-0.015h3.122c0.148-0 0.29-0.059 0.394-0.164l1.754-1.754c0.101-0.101 0.16-0.236 0.164-0.379l0.052-1.791 1.487 0.186c0.169 0.021 0.339-0.036 0.461-0.156l1.107-1.108c0.093-0.091 0.151-0.212 0.164-0.342l0.156-1.613 1.947-0.431c0.221-0.048 0.391-0.224 0.431-0.446l0.386-2.148 2.081-0.327c0.115-0.019 0.222-0.073 0.305-0.156l2.274-2.274 1.933 1.933c0.551 0.552 1.445 0.553 1.997 0.002 0.001-0.001 0.002-0.002 0.002-0.002l8.555-8.607c1.687-1.687 1.687-3.716 0-5.396zM14.602 20.449l-2.289 0.364c-0.235 0.038-0.419 0.22-0.461 0.453l-0.401 2.148-1.977 0.439c-0.235 0.053-0.408 0.251-0.431 0.491l-0.178 1.821-0.743 0.743-1.873-0.201c-0.306-0.037-0.583 0.181-0.621 0.486-0.002 0.016-0.003 0.033-0.004 0.049l-0.059 2.185-1.435 1.435h-2.341l0.089-3.144 9.856-9.886c0.217-0.218 0.217-0.57 0-0.788l-0.58-0.58 1.88-1.88 3.716 3.716-2.148 2.148zM29.289 11.619l-8.622 8.592c-0.115 0.117-0.303 0.118-0.42 0.003-0.001-0.001-0.002-0.002-0.003-0.003l-2.326-2.319-6.786-6.786c-0.139-0.087-0.182-0.27-0.095-0.41 0.017-0.028 0.039-0.053 0.065-0.073l8.6-8.57c0.48-0.558 1.168-0.896 1.903-0.937 0.738 0.047 1.427 0.384 1.918 0.937l5.768 5.746c0.87 0.87 1.576 2.23 0 3.82z"></path>
<path d="M26.871 9.67c-0.009-0.010-0.018-0.019-0.028-0.028l-5.166-5.166c-0.21-0.225-0.563-0.238-0.788-0.028s-0.238 0.563-0.028 0.788c0.009 0.010 0.018 0.019 0.028 0.028l5.166 5.166c0.21 0.225 0.563 0.238 0.788 0.028s0.238-0.563 0.028-0.788z"></path>
</svg>
