<!-- Generated by IcoMoon.io -->
<svg version="1.1" xmlns="http://www.w3.org/2000/svg" width="32" height="32" viewBox="0 0 32 32">
<title>pistons</title>
<path d="M10.307 9.601c-0.729-0.729-1.911-0.729-2.64 0.001s-0.729 1.911 0 2.64c0.729 0.729 1.911 0.729 2.64 0.001 0.728-0.73 0.728-1.912-0.001-2.641zM9.552 11.486c-0.229 0.229-0.573 0.297-0.872 0.174s-0.494-0.416-0.494-0.739c0-0.324 0.195-0.616 0.494-0.739s0.643-0.055 0.872 0.174c0.312 0.312 0.312 0.819 0 1.131z"></path>
<path d="M23.532 27.866c0.636 0.002 1.246-0.251 1.694-0.702 0.812-0.81 0.939-2.081 0.302-3.035s-1.858-1.325-2.918-0.887c-1.060 0.438-1.662 1.564-1.439 2.689s1.21 1.935 2.357 1.935zM22.589 24.524c0.521-0.521 1.365-0.521 1.886 0s0.521 1.365 0 1.886c-0.528 0.502-1.358 0.502-1.886 0-0.25-0.25-0.391-0.589-0.391-0.943s0.14-0.693 0.391-0.943z"></path>
<path d="M26.031 2.25c-0.2-0.2-0.471-0.313-0.754-0.313s-0.554 0.113-0.754 0.313l-1.131 1.129-6.788 6.788c-0.3 0.3-0.469 0.707-0.469 1.131s0.168 0.832 0.469 1.132l0.195 0.194c0.359 0.357 0.866 0.523 1.367 0.448 0.002-0.001 0.005-0.001 0.008 0l0.047-0.005h0.009l-1.035 1.035c-0.331 0.331-0.74 0.716-1.194 1.125-0.475-0.427-0.885-0.812-1.197-1.123l-1.033-1.037c0.018 0 0.037 0.003 0.053 0.006 0.002-0 0.005-0 0.008 0 0.501 0.076 1.008-0.089 1.367-0.447l0.195-0.195c0.625-0.625 0.625-1.638 0-2.262l-7.916-7.918c-0.422-0.403-1.087-0.403-1.509 0l-5.657 5.653c-0.416 0.417-0.416 1.092 0 1.508l7.92 7.921c0.3 0.3 0.707 0.469 1.132 0.469s0.831-0.169 1.131-0.469l0.194-0.195c0.336-0.341 0.501-0.815 0.449-1.291 0-0.005 0.003-0.010 0.003-0.015-0.001-0.026-0.002-0.052-0.006-0.078 0-0.016-0.003-0.031-0.005-0.046l1.036 1.033c0.27 0.27 0.581 0.598 0.901 0.949-2.069 1.615-4.267 3.078-5.547 3.35-0.301 0.066-0.594 0.165-0.875 0.293l-0.227-0.227c-0.2-0.2-0.471-0.313-0.754-0.313s-0.554 0.113-0.754 0.313l-0.75 0.752c-0.2 0.2-0.313 0.471-0.313 0.754s0.113 0.554 0.313 0.754l0.201 0.2c-0.671 1.427-0.545 3.102 0.332 4.413 0.337 0.497 0.765 0.926 1.261 1.263 1.31 0.885 2.989 1.012 4.417 0.334l0.199 0.2c0.2 0.2 0.471 0.313 0.754 0.313s0.554-0.112 0.754-0.313l0.751-0.754c0.416-0.416 0.416-1.092 0-1.508l-0.227-0.228c0.128-0.28 0.226-0.572 0.292-0.872 0.258-1.211 1.588-3.25 3.1-5.221 1.778 2.315 2.88 4.16 3.108 5.218 0.066 0.301 0.164 0.595 0.292 0.875l-0.228 0.228c-0.2 0.2-0.313 0.471-0.313 0.754s0.113 0.554 0.313 0.754l0.754 0.754c0.2 0.2 0.471 0.313 0.755 0.313s0.554-0.112 0.754-0.313l0.199-0.199c1.427 0.677 3.105 0.55 4.415-0.333 0.249-0.168 0.481-0.36 0.693-0.572 0.211-0.211 0.401-0.442 0.567-0.689 0.878-1.311 1.005-2.987 0.334-4.416l0.201-0.201c0.2-0.2 0.313-0.471 0.313-0.754s-0.113-0.554-0.313-0.754l-0.753-0.754c-0.417-0.416-1.092-0.416-1.508 0l-0.228 0.228c-0.279-0.13-0.572-0.228-0.873-0.291-1.113-0.237-3.075-1.43-5.547-3.356 0.326-0.355 0.63-0.674 0.901-0.945l1.035-1.035c-0.003 0.020-0.003 0.037-0.006 0.058-0.003 0.027-0.005 0.055-0.005 0.083 0 0.005 0.003 0.009 0.003 0.014-0.049 0.472 0.116 0.942 0.449 1.28l0.194 0.195c0.3 0.3 0.707 0.469 1.132 0.469s0.831-0.169 1.131-0.469l7.921-7.922c0.416-0.416 0.416-1.092 0-1.508zM29.425 10.17l-0.755 0.754-5.657-5.66 0.754-0.754 2.827 2.827zM5.404 7.343l2.827-2.827 0.754 0.754-5.655 5.651-0.755-0.754zM6.723 3.006l0.755 0.755-5.653 5.653-0.758-0.756zM9.935 16.383l-0.194 0.195c-0.1 0.1-0.236 0.157-0.377 0.157s-0.277-0.056-0.377-0.157l-4.902-4.902 5.657-5.657 4.903 4.903c0.208 0.208 0.208 0.546 0 0.754l-0.195 0.194c-0.124 0.119-0.296 0.173-0.465 0.145-0.011 0-0.022 0-0.033-0.003-0.097-0.012-0.195-0.024-0.329-0.029h-0.021c-0.072 0-0.145 0-0.217 0.005-0.031 0-0.063 0-0.092 0h-0.035c-0.254 0.018-0.506 0.064-0.75 0.139-0.025 0.008-0.046 0.010-0.072 0.018l-0.011 0.004c-0.007 0.003-0.013 0.004-0.020 0.006-0.083 0.028-0.163 0.063-0.244 0.098-0.023 0.010-0.049 0.018-0.071 0.028l-0.010 0.004-0.053 0.025c-0.059 0.026-0.116 0.055-0.171 0.089l-0.122 0.070c-0.014 0.009-0.029 0.016-0.044 0.025l-0.018 0.010c-0.077 0.053-0.16 0.107-0.231 0.16l-0.014 0.012c-0.035 0.026-0.068 0.053-0.102 0.080-0.091 0.072-0.177 0.148-0.258 0.23s-0.159 0.168-0.23 0.259c-0.027 0.033-0.053 0.067-0.079 0.1l-0.012 0.015c-0.046 0.060-0.094 0.131-0.152 0.218-0.011 0.018-0.024 0.035-0.035 0.053l-0.063 0.112c-0.021 0.033-0.032 0.063-0.050 0.096-0.082 0.154-0.152 0.315-0.21 0.48-0.004 0.008-0.005 0.017-0.009 0.024s0 0.012-0.005 0.017l-0.008 0.019c-0.010 0.032-0.015 0.066-0.024 0.099-0.033 0.114-0.060 0.231-0.081 0.348-0.011 0.060-0.019 0.114-0.024 0.16-0.009 0.074-0.016 0.148-0.021 0.223v0.006c-0.009 0.080-0.011 0.161-0.008 0.242v0.128c0.004 0.090 0.014 0.179 0.027 0.276v0.004c0 0.015 0 0.030 0.003 0.045 0.029 0.172-0.027 0.347-0.15 0.471zM12.922 15.984l-1.576-1.571c0.071-0.147 0.156-0.286 0.256-0.416 0.009-0.011 0.018-0.020 0.024-0.030s0.025-0.031 0.036-0.045l0.005-0.007c0.047-0.057 0.095-0.113 0.148-0.166s0.107-0.099 0.164-0.146c0.021-0.013 0.041-0.029 0.060-0.047 0.015-0.010 0.028-0.022 0.041-0.033 0.119-0.090 0.246-0.168 0.379-0.234 0.006 0 0.011-0.006 0.018-0.009l1.572 1.576c0.305 0.305 0.693 0.674 1.147 1.081-0.41 0.354-0.844 0.719-1.293 1.083-0.348-0.383-0.688-0.742-0.983-1.037zM24.267 22.085c0.329 0.066 0.646 0.184 0.937 0.351 0.016 0.008 0.032 0.014 0.048 0.020 0.011 0.005 0.021 0.009 0.032 0.013 0.117 0.050 0.25 0.050 0.367 0 0.011-0.004 0.021-0.008 0.032-0.013 0.062-0.026 0.118-0.064 0.166-0.112l0.487-0.486 0.754 0.754-0.471 0.471c-0.010 0.010-0.013 0.023-0.022 0.033-0.023 0.028-0.043 0.058-0.060 0.090-0.036 0.056-0.057 0.121-0.061 0.188-0.006 0.034-0.008 0.068-0.006 0.102 0.003 0.032 0.010 0.064 0.019 0.095 0.008 0.036 0.020 0.070 0.036 0.103 0.006 0.012 0.006 0.026 0.013 0.037 0.658 1.142 0.614 2.558-0.114 3.657-0.088 0.128-0.184 0.25-0.289 0.365-0.005 0.005-0.012 0.008-0.017 0.014-0.039 0.049-0.080 0.096-0.125 0.141l-0.008 0.009-0.011 0.010c-0.045 0.044-0.092 0.085-0.14 0.125-0.006 0.004-0.008 0.011-0.014 0.015-0.116 0.105-0.239 0.202-0.368 0.291-1.099 0.725-2.513 0.769-3.654 0.112-0.012-0.007-0.025-0.007-0.037-0.013-0.033-0.016-0.067-0.028-0.103-0.036-0.032-0.010-0.064-0.016-0.097-0.019-0.033-0.001-0.067 0.001-0.1 0.006-0.034 0.003-0.067 0.010-0.1 0.020-0.064 0.025-0.125 0.060-0.179 0.102-0.010 0.009-0.023 0.012-0.033 0.022l-0.472 0.471-0.754-0.754 0.49-0.49c0.008-0.008 0.010-0.019 0.018-0.027 0.027-0.031 0.049-0.065 0.067-0.101 0.014-0.024 0.027-0.050 0.037-0.076 0.011-0.037 0.019-0.075 0.022-0.114 0.013-0.065 0.008-0.132-0.015-0.194-0.007-0.032-0.017-0.063-0.031-0.093-0.005-0.012-0.005-0.024-0.012-0.036-0.166-0.295-0.285-0.615-0.353-0.947-0.336-1.571-2.018-3.995-3.47-5.867 0.52-0.649 1.043-1.271 1.542-1.841 1.94 1.519 4.433 3.257 6.047 3.601zM19.081 15.986c-0.329 0.329-0.794 0.824-1.326 1.422-0.005 0.006-0.012 0.008-0.017 0.014s-0.003 0.008-0.006 0.011c-2.133 2.4-5.394 6.484-5.879 8.762-0.068 0.331-0.187 0.649-0.353 0.943-0.006 0.011-0.005 0.022-0.011 0.032-0.015 0.034-0.027 0.070-0.034 0.107-0.021 0.063-0.024 0.131-0.011 0.197 0.003 0.033 0.010 0.067 0.020 0.099 0.027 0.064 0.062 0.124 0.103 0.179 0.008 0.009 0.011 0.020 0.019 0.029l0.491 0.49-0.755 0.752-0.471-0.471c-0.010-0.010-0.023-0.013-0.033-0.022-0.055-0.042-0.115-0.077-0.18-0.102-0.032-0.009-0.064-0.015-0.098-0.019-0.034-0.006-0.068-0.008-0.102-0.006-0.032 0.003-0.064 0.010-0.095 0.019-0.037 0.008-0.073 0.020-0.107 0.036-0.012 0.006-0.026 0.006-0.037 0.013-1.142 0.658-2.557 0.614-3.656-0.113-0.128-0.087-0.25-0.184-0.365-0.288-0.006-0.005-0.009-0.012-0.015-0.018-0.105-0.083-0.2-0.178-0.283-0.283-0.005-0.006-0.012-0.008-0.017-0.014-0.105-0.116-0.203-0.239-0.291-0.369-0.726-1.098-0.769-2.513-0.112-3.653 0.007-0.012 0.007-0.025 0.013-0.038 0.015-0.032 0.027-0.066 0.035-0.101 0.023-0.098 0.021-0.2-0.006-0.298-0.011-0.031-0.025-0.060-0.042-0.088-0.017-0.033-0.037-0.063-0.060-0.092-0.009-0.010-0.012-0.023-0.022-0.032l-0.471-0.471 0.755-0.754 0.489 0.49c0.045 0.044 0.098 0.079 0.156 0.104 0.014 0.007 0.029 0.013 0.044 0.018 0.056 0.021 0.116 0.033 0.177 0.034 0.060-0.001 0.12-0.013 0.177-0.034 0.015-0.005 0.029-0.011 0.043-0.018s0.029-0.009 0.043-0.017c0.295-0.166 0.615-0.286 0.947-0.354 1.642-0.349 4.225-2.143 6.439-3.918 0.006-0.005 0.013-0.006 0.019-0.011s0.004-0.007 0.007-0.010c0.8-0.644 1.551-1.28 2.191-1.847 0.654-0.58 1.198-1.087 1.547-1.44l1.58-1.575c0.156 0.074 0.302 0.166 0.438 0.272 0.017 0.014 0.034 0.030 0.053 0.044l0.008 0.006c0.056 0.048 0.112 0.095 0.166 0.148s0.101 0.11 0.148 0.166l0.004 0.005c0.014 0.019 0.028 0.036 0.044 0.053l0.009 0.012-0.013-0.012c0.008 0.012 0.021 0.026 0.032 0.041 0.042 0.053 0.084 0.112 0.12 0.171 0.041 0.067 0.078 0.136 0.112 0.206 0.003 0.006 0.006 0.011 0.009 0.018zM23.014 16.578c-0.1 0.1-0.236 0.157-0.377 0.157s-0.277-0.056-0.377-0.157l-0.194-0.195c-0.119-0.124-0.173-0.296-0.145-0.466 0-0.011 0-0.023 0.002-0.035 0.012-0.097 0.024-0.194 0.029-0.328v-0.020c0.003-0.090 0-0.18-0.006-0.267 0-0.014 0-0.029 0-0.044v-0.017c-0.017-0.267-0.065-0.531-0.145-0.787-0.005-0.019-0.007-0.034-0.013-0.053l-0.003-0.008c-0.034-0.103-0.076-0.203-0.12-0.303-0.005-0.012-0.010-0.026-0.014-0.037v-0.005c-0.010-0.020-0.018-0.041-0.028-0.062-0.026-0.058-0.055-0.114-0.088-0.168l-0.066-0.113c-0.011-0.018-0.020-0.037-0.031-0.053l-0.009-0.015c-0.053-0.077-0.107-0.16-0.163-0.231l-0.011-0.013c-0.026-0.035-0.053-0.068-0.080-0.102-0.072-0.090-0.149-0.177-0.23-0.259-0.107-0.105-0.221-0.204-0.341-0.295l-0.006-0.005c-0.009-0.007-0.018-0.015-0.027-0.022-0.033-0.025-0.068-0.053-0.107-0.077s-0.068-0.047-0.103-0.069c-0.022-0.014-0.040-0.027-0.064-0.043l-0.107-0.059c-0.064-0.036-0.13-0.069-0.196-0.101-0.019-0.009-0.040-0.022-0.058-0.030-0.009-0.004-0.020-0.007-0.029-0.011-0.098-0.044-0.199-0.084-0.302-0.118-0.019-0.007-0.035-0.014-0.053-0.021l-0.016-0.004c-0.155-0.047-0.313-0.084-0.472-0.109-0.027-0.005-0.053-0.008-0.076-0.011-0.089-0.012-0.179-0.021-0.267-0.027-0.058-0.005-0.115-0.007-0.167-0.008-0.013 0-0.027 0-0.040 0s-0.022 0-0.033 0h-0.132c-0.092 0.004-0.184 0.014-0.275 0.027h-0.008c-0.013 0-0.027 0-0.041 0.003-0.169 0.028-0.342-0.026-0.466-0.145l-0.194-0.194c-0.208-0.208-0.208-0.546 0-0.754l4.903-4.903 5.648 5.655zM30.179 9.412l-5.653-5.653 0.755-0.755 5.653 5.654z"></path>
<path d="M21.694 9.601c-0.729 0.729-0.729 1.911 0 2.64s1.911 0.729 2.64 0c0.729-0.729 0.729-1.911 0-2.64-0.73-0.728-1.911-0.727-2.641 0.001zM23.579 11.487c-0.312 0.313-0.819 0.312-1.131-0s-0.312-0.819 0-1.131 0.819-0.313 1.131-0c0.15 0.15 0.235 0.354 0.235 0.566s-0.084 0.416-0.235 0.566z"></path>
<path d="M6.773 23.77c-0.937 0.937-0.937 2.457 0 3.394s2.457 0.937 3.394 0c0.937-0.937 0.937-2.457 0-3.394-0.448-0.454-1.059-0.709-1.697-0.709s-1.249 0.255-1.697 0.709zM9.413 26.41c-0.528 0.502-1.358 0.502-1.886 0-0.521-0.521-0.521-1.365 0-1.886s1.365-0.521 1.886 0c0.521 0.52 0.521 1.365 0 1.886z"></path>
</svg>
