<!-- Generated by IcoMoon.io -->
<svg version="1.1" xmlns="http://www.w3.org/2000/svg" width="32" height="32" viewBox="0 0 32 32">
<title>wrench</title>
<path d="M30.897 2.913l-1.923-1.923c-1.254-1.254-3.367-1.327-4.71-0.162l-3.379 2.929c-0.043 0.038-0.080 0.082-0.11 0.131l-3.29 5.48-2.112 0.704c-0.178 0.059-0.313 0.207-0.357 0.39s0.011 0.375 0.144 0.508l5.757 5.756c0.103 0.103 0.242 0.159 0.384 0.159 0.042 0 0.083-0.005 0.125-0.015 0.183-0.043 0.331-0.178 0.39-0.357l0.704-2.113 5.56-3.357c0.049-0.030 0.093-0.067 0.13-0.11l2.86-3.314c1.158-1.342 1.080-3.453-0.174-4.707zM30.249 6.911l-2.804 3.249-5.657 3.416c-0.11 0.067-0.194 0.171-0.234 0.293l-0.49 1.47-1.297-1.297c-0-0-0-0.001-0.001-0.001l-1.919-1.919c-0-0-0-0-0.001-0.001l-1.297-1.297 1.47-0.49c0.123-0.041 0.227-0.124 0.294-0.236l3.349-5.578 3.314-2.873c0.922-0.799 2.372-0.75 3.232 0.11l1.923 1.923c0.86 0.86 0.914 2.309 0.119 3.23z"></path>
<path d="M29.358 21.808c-1.593-1.593-3.939-2.147-6.064-1.458l-11.534-11.534c0.689-2.125 0.135-4.47-1.458-6.064-1.679-1.679-4.192-2.204-6.403-1.337-0.17 0.067-0.296 0.215-0.333 0.394s0.018 0.365 0.147 0.495l3.453 3.453-2.303 2.303-3.453-3.453c-0.13-0.129-0.315-0.185-0.495-0.147s-0.328 0.163-0.394 0.333c-0.866 2.211-0.341 4.724 1.337 6.403 1.593 1.593 3.939 2.147 6.064 1.458l4.313 4.313-5.371 5.371-3.416 1.91c-0.095 0.053-0.172 0.134-0.221 0.231l-1.535 3.070c-0.105 0.209-0.064 0.461 0.102 0.627l1.919 1.919c0.104 0.104 0.243 0.159 0.384 0.159 0.082 0 0.165-0.019 0.243-0.057l3.070-1.535c0.097-0.049 0.178-0.126 0.231-0.221l1.91-3.416 5.371-5.371 4.535 4.535c-0.689 2.125-0.135 4.47 1.459 6.064 1.141 1.141 2.668 1.749 4.224 1.749 0.732-0 1.471-0.135 2.179-0.412 0.17-0.067 0.296-0.215 0.333-0.394s-0.018-0.365-0.148-0.495l-3.453-3.453 2.303-2.303 3.453 3.453c0.13 0.13 0.315 0.185 0.495 0.148s0.328-0.163 0.394-0.333c0.866-2.211 0.341-4.724-1.337-6.403zM8.73 24.308c-0.035 0.035-0.066 0.075-0.090 0.119l-1.865 3.336-2.571 1.285-1.366-1.366 1.285-2.571 3.336-1.865c0.044-0.024 0.084-0.055 0.119-0.090l5.424-5.424 1.151 1.151-5.424 5.424zM29.929 26.983l-3.191-3.191c-0.212-0.212-0.556-0.212-0.768 0l-3.070 3.070c-0.102 0.102-0.159 0.24-0.159 0.384s0.057 0.282 0.159 0.384l3.191 3.191c-1.582 0.314-3.241-0.171-4.408-1.338-1.374-1.374-1.803-3.43-1.094-5.239 0.079-0.201 0.031-0.429-0.122-0.582l-12.020-12.020c-0.104-0.104-0.243-0.159-0.384-0.159-0.066 0-0.134 0.012-0.198 0.037-1.809 0.709-3.866 0.279-5.239-1.094-1.167-1.167-1.652-2.826-1.338-4.408l3.191 3.191c0.212 0.212 0.556 0.212 0.768 0l3.070-3.070c0.212-0.212 0.212-0.556 0-0.768l-3.191-3.191c1.582-0.315 3.241 0.171 4.408 1.338 1.374 1.374 1.803 3.43 1.094 5.239-0.079 0.201-0.031 0.429 0.121 0.582l12.020 12.020c0.153 0.152 0.381 0.2 0.582 0.122 1.809-0.709 3.866-0.279 5.239 1.094 1.167 1.167 1.652 2.826 1.338 4.408z"></path>
</svg>
