<svg aria-hidden="true" style="position: absolute; width: 0; height: 0; overflow: hidden;" version="1.1" xmlns="http://www.w3.org/2000/svg" xmlns:xlink="http://www.w3.org/1999/xlink">
<defs>
<symbol id="icon-helmet" viewBox="0 0 32 32">
<title>helmet</title>
<path d="M31.054 24.995c0.475-3.022 0.499-6.392 0.066-9.489-0.066-0.47-0.142-0.928-0.226-1.376-0.002-0.013-0.004-0.026-0.007-0.039-0.448-2.357-1.157-4.411-2.116-6.117-0.008-0.014-0.017-0.028-0.026-0.042-0.003-0.005-0.006-0.010-0.009-0.015-1.177-1.917-2.736-3.534-4.634-4.805-1.763-1.181-3.785-2.044-6.008-2.564-3.341-0.78-7.314-0.724-10.629 0.151-0.334 0.088-0.533 0.43-0.445 0.765s0.43 0.533 0.764 0.445c0.743-0.196 1.521-0.348 2.317-0.456 4.186 0.834 7.928 2.493 10.825 4.802 2.211 1.762 3.773 3.827 4.416 5.802l-8.524-2.621c-1.839-0.566-3.445-0.126-4.405 1.206-1.19 1.65-1.052 4.25 0.327 6.181 2.924 4.095 6.222 6.118 16.586 10.097-0.105 0.36-0.216 0.696-0.319 0.947-0.248 0.464-2.136 2.46-3.459 2.831-0.257 0.072-0.451 0.069-0.575-0.008-0.017-0.011-0.034-0.020-0.051-0.029l-2.602-1.301s-0-0-0-0 0 0-0 0l-5.62-2.811c-0-0-0.001-0-0.001-0.001-1.52-0.76-5.143-3.297-8.438-6.557-2.707-2.677-5.93-6.574-5.972-9.975 0.271-1.234 0.687-2.28 1.257-3.164 0.141-0.218 0.132-0.501-0.022-0.71l-1.411-1.913c0.533-0.292 1.082-0.572 1.715-0.875 0.312-0.149 0.443-0.523 0.294-0.834s-0.523-0.443-0.834-0.294c-0.905 0.433-1.649 0.823-2.411 1.264-0.154 0.089-0.263 0.24-0.299 0.414s0.003 0.356 0.109 0.499l1.581 2.144c-0.544 0.939-0.945 2.018-1.212 3.257-0.003 0.012-0.006 0.024-0.008 0.037-0.144 0.674-0.249 1.395-0.314 2.169-0.205 2.424 0.003 5.005 0.169 7.079 0.002 0.029 0.007 0.057 0.013 0.084 0.074 0.568 0.422 1.073 0.928 1.343-0.106 0.463-0.083 0.949 0.072 1.413 0.222 0.667 0.689 1.207 1.315 1.52l15.845 7.925c0.376 0.188 0.776 0.277 1.171 0.277 0.762 0 1.501-0.334 2.006-0.927l2.088 1.044c0.26 0.156 0.554 0.233 0.878 0.233 0.217 0 0.447-0.035 0.689-0.105 1.755-0.504 3.911-2.834 4.232-3.493 0.005-0.011 0.010-0.021 0.014-0.032 0.182-0.433 0.372-1.060 0.532-1.668 0-0.002 0.001-0.004 0.001-0.006 0.184-0.7 0.327-1.374 0.369-1.701zM7.379 20.88c0.786 0.777 1.591 1.514 2.385 2.2l-6.872-3.437s0-0-0-0l-0.45-0.225c-0.167-0.084-0.275-0.245-0.29-0.431-0.002-0.023-0.005-0.046-0.009-0.068-0.128-1.595-0.277-3.49-0.238-5.348 1.209 2.705 3.474 5.332 5.475 7.31zM19.633 30.253l-15.845-7.925c-0.327-0.163-0.571-0.446-0.688-0.796-0.046-0.139-0.069-0.281-0.071-0.422l18.035 9.020c-0.403 0.296-0.954 0.362-1.432 0.123zM21.705 5.275c-2.108-1.68-4.633-3.032-7.437-3.996 1.219 0.063 2.418 0.224 3.541 0.486 3.027 0.708 7.194 2.462 9.86 6.804 0.003 0.005 0.006 0.010 0.009 0.015 0.007 0.012 0.014 0.024 0.021 0.035 0.746 1.336 1.33 2.91 1.746 4.697l-2.691-0.827c-0.535-2.487-2.313-5.034-5.050-7.215zM13.758 16.095c-1.059-1.484-1.201-3.514-0.33-4.723 0.636-0.882 1.709-1.146 3.022-0.742l1.956 0.602-1.24 8.432c-1.388-1.062-2.426-2.193-3.408-3.569zM18.311 20.473l1.305-8.869 10.114 3.11c0.055 0.316 0.106 0.637 0.152 0.965 0.416 2.982 0.394 6.225-0.064 9.131-0.001 0.006-0.002 0.013-0.003 0.019-0.023 0.182-0.085 0.5-0.171 0.872-5.477-2.106-8.903-3.639-11.332-5.228z"></path>
<path d="M5.137 2.721c0.072 0 0.146-0.013 0.218-0.040l0.014-0.005c0.323-0.123 0.486-0.484 0.363-0.807s-0.484-0.486-0.807-0.363c-0 0-0.007 0.002-0.008 0.003-0.323 0.121-0.487 0.481-0.366 0.804 0.094 0.252 0.332 0.407 0.586 0.407z"></path>
<path d="M4.627 4.313c-0.205-0.278-0.597-0.337-0.875-0.132s-0.337 0.597-0.132 0.875l0.915 1.241c0.123 0.166 0.312 0.254 0.504 0.254 0.129 0 0.259-0.040 0.371-0.122 0.278-0.205 0.337-0.597 0.132-0.875z"></path>
<path d="M5.869 4.228l0.915 1.241c0.123 0.166 0.312 0.254 0.504 0.254 0.129 0 0.259-0.040 0.371-0.122 0.278-0.205 0.337-0.597 0.132-0.875l-0.915-1.241c-0.205-0.278-0.597-0.337-0.875-0.132s-0.337 0.597-0.132 0.875z"></path>
<path d="M21.117 27.875c0.090 0.045 0.185 0.066 0.278 0.066 0.23 0 0.451-0.127 0.56-0.347 0.154-0.309 0.028-0.685-0.281-0.839l-0.013-0.006c-0.309-0.154-0.685-0.028-0.839 0.281s-0.028 0.685 0.282 0.839z"></path>
<path d="M25.020 29.827c0.090 0.045 0.185 0.066 0.28 0.066 0.229 0 0.45-0.127 0.56-0.346 0.155-0.309 0.029-0.685-0.28-0.839l-2.296-1.148c-0.309-0.155-0.685-0.029-0.839 0.28s-0.029 0.685 0.28 0.839z"></path>
</symbol>
<symbol id="icon-pistons" viewBox="0 0 32 32">
<title>pistons</title>
<path d="M10.307 9.601c-0.729-0.729-1.911-0.729-2.64 0.001s-0.729 1.911 0 2.64c0.729 0.729 1.911 0.729 2.64 0.001 0.728-0.73 0.728-1.912-0.001-2.641zM9.552 11.486c-0.229 0.229-0.573 0.297-0.872 0.174s-0.494-0.416-0.494-0.739c0-0.324 0.195-0.616 0.494-0.739s0.643-0.055 0.872 0.174c0.312 0.312 0.312 0.819 0 1.131z"></path>
<path d="M23.532 27.866c0.636 0.002 1.246-0.251 1.694-0.702 0.812-0.81 0.939-2.081 0.302-3.035s-1.858-1.325-2.918-0.887c-1.060 0.438-1.662 1.564-1.439 2.689s1.21 1.935 2.357 1.935zM22.589 24.524c0.521-0.521 1.365-0.521 1.886 0s0.521 1.365 0 1.886c-0.528 0.502-1.358 0.502-1.886 0-0.25-0.25-0.391-0.589-0.391-0.943s0.14-0.693 0.391-0.943z"></path>
<path d="M26.031 2.25c-0.2-0.2-0.471-0.313-0.754-0.313s-0.554 0.113-0.754 0.313l-1.131 1.129-6.788 6.788c-0.3 0.3-0.469 0.707-0.469 1.131s0.168 0.832 0.469 1.132l0.195 0.194c0.359 0.357 0.866 0.523 1.367 0.448 0.002-0.001 0.005-0.001 0.008 0l0.047-0.005h0.009l-1.035 1.035c-0.331 0.331-0.74 0.716-1.194 1.125-0.475-0.427-0.885-0.812-1.197-1.123l-1.033-1.037c0.018 0 0.037 0.003 0.053 0.006 0.002-0 0.005-0 0.008 0 0.501 0.076 1.008-0.089 1.367-0.447l0.195-0.195c0.625-0.625 0.625-1.638 0-2.262l-7.916-7.918c-0.422-0.403-1.087-0.403-1.509 0l-5.657 5.653c-0.416 0.417-0.416 1.092 0 1.508l7.92 7.921c0.3 0.3 0.707 0.469 1.132 0.469s0.831-0.169 1.131-0.469l0.194-0.195c0.336-0.341 0.501-0.815 0.449-1.291 0-0.005 0.003-0.010 0.003-0.015-0.001-0.026-0.002-0.052-0.006-0.078 0-0.016-0.003-0.031-0.005-0.046l1.036 1.033c0.27 0.27 0.581 0.598 0.901 0.949-2.069 1.615-4.267 3.078-5.547 3.35-0.301 0.066-0.594 0.165-0.875 0.293l-0.227-0.227c-0.2-0.2-0.471-0.313-0.754-0.313s-0.554 0.113-0.754 0.313l-0.75 0.752c-0.2 0.2-0.313 0.471-0.313 0.754s0.113 0.554 0.313 0.754l0.201 0.2c-0.671 1.427-0.545 3.102 0.332 4.413 0.337 0.497 0.765 0.926 1.261 1.263 1.31 0.885 2.989 1.012 4.417 0.334l0.199 0.2c0.2 0.2 0.471 0.313 0.754 0.313s0.554-0.112 0.754-0.313l0.751-0.754c0.416-0.416 0.416-1.092 0-1.508l-0.227-0.228c0.128-0.28 0.226-0.572 0.292-0.872 0.258-1.211 1.588-3.25 3.1-5.221 1.778 2.315 2.88 4.16 3.108 5.218 0.066 0.301 0.164 0.595 0.292 0.875l-0.228 0.228c-0.2 0.2-0.313 0.471-0.313 0.754s0.113 0.554 0.313 0.754l0.754 0.754c0.2 0.2 0.471 0.313 0.755 0.313s0.554-0.112 0.754-0.313l0.199-0.199c1.427 0.677 3.105 0.55 4.415-0.333 0.249-0.168 0.481-0.36 0.693-0.572 0.211-0.211 0.401-0.442 0.567-0.689 0.878-1.311 1.005-2.987 0.334-4.416l0.201-0.201c0.2-0.2 0.313-0.471 0.313-0.754s-0.113-0.554-0.313-0.754l-0.753-0.754c-0.417-0.416-1.092-0.416-1.508 0l-0.228 0.228c-0.279-0.13-0.572-0.228-0.873-0.291-1.113-0.237-3.075-1.43-5.547-3.356 0.326-0.355 0.63-0.674 0.901-0.945l1.035-1.035c-0.003 0.020-0.003 0.037-0.006 0.058-0.003 0.027-0.005 0.055-0.005 0.083 0 0.005 0.003 0.009 0.003 0.014-0.049 0.472 0.116 0.942 0.449 1.28l0.194 0.195c0.3 0.3 0.707 0.469 1.132 0.469s0.831-0.169 1.131-0.469l7.921-7.922c0.416-0.416 0.416-1.092 0-1.508zM29.425 10.17l-0.755 0.754-5.657-5.66 0.754-0.754 2.827 2.827zM5.404 7.343l2.827-2.827 0.754 0.754-5.655 5.651-0.755-0.754zM6.723 3.006l0.755 0.755-5.653 5.653-0.758-0.756zM9.935 16.383l-0.194 0.195c-0.1 0.1-0.236 0.157-0.377 0.157s-0.277-0.056-0.377-0.157l-4.902-4.902 5.657-5.657 4.903 4.903c0.208 0.208 0.208 0.546 0 0.754l-0.195 0.194c-0.124 0.119-0.296 0.173-0.465 0.145-0.011 0-0.022 0-0.033-0.003-0.097-0.012-0.195-0.024-0.329-0.029h-0.021c-0.072 0-0.145 0-0.217 0.005-0.031 0-0.063 0-0.092 0h-0.035c-0.254 0.018-0.506 0.064-0.75 0.139-0.025 0.008-0.046 0.010-0.072 0.018l-0.011 0.004c-0.007 0.003-0.013 0.004-0.020 0.006-0.083 0.028-0.163 0.063-0.244 0.098-0.023 0.010-0.049 0.018-0.071 0.028l-0.010 0.004-0.053 0.025c-0.059 0.026-0.116 0.055-0.171 0.089l-0.122 0.070c-0.014 0.009-0.029 0.016-0.044 0.025l-0.018 0.010c-0.077 0.053-0.16 0.107-0.231 0.16l-0.014 0.012c-0.035 0.026-0.068 0.053-0.102 0.080-0.091 0.072-0.177 0.148-0.258 0.23s-0.159 0.168-0.23 0.259c-0.027 0.033-0.053 0.067-0.079 0.1l-0.012 0.015c-0.046 0.060-0.094 0.131-0.152 0.218-0.011 0.018-0.024 0.035-0.035 0.053l-0.063 0.112c-0.021 0.033-0.032 0.063-0.050 0.096-0.082 0.154-0.152 0.315-0.21 0.48-0.004 0.008-0.005 0.017-0.009 0.024s0 0.012-0.005 0.017l-0.008 0.019c-0.010 0.032-0.015 0.066-0.024 0.099-0.033 0.114-0.060 0.231-0.081 0.348-0.011 0.060-0.019 0.114-0.024 0.16-0.009 0.074-0.016 0.148-0.021 0.223v0.006c-0.009 0.080-0.011 0.161-0.008 0.242v0.128c0.004 0.090 0.014 0.179 0.027 0.276v0.004c0 0.015 0 0.030 0.003 0.045 0.029 0.172-0.027 0.347-0.15 0.471zM12.922 15.984l-1.576-1.571c0.071-0.147 0.156-0.286 0.256-0.416 0.009-0.011 0.018-0.020 0.024-0.030s0.025-0.031 0.036-0.045l0.005-0.007c0.047-0.057 0.095-0.113 0.148-0.166s0.107-0.099 0.164-0.146c0.021-0.013 0.041-0.029 0.060-0.047 0.015-0.010 0.028-0.022 0.041-0.033 0.119-0.090 0.246-0.168 0.379-0.234 0.006 0 0.011-0.006 0.018-0.009l1.572 1.576c0.305 0.305 0.693 0.674 1.147 1.081-0.41 0.354-0.844 0.719-1.293 1.083-0.348-0.383-0.688-0.742-0.983-1.037zM24.267 22.085c0.329 0.066 0.646 0.184 0.937 0.351 0.016 0.008 0.032 0.014 0.048 0.020 0.011 0.005 0.021 0.009 0.032 0.013 0.117 0.050 0.25 0.050 0.367 0 0.011-0.004 0.021-0.008 0.032-0.013 0.062-0.026 0.118-0.064 0.166-0.112l0.487-0.486 0.754 0.754-0.471 0.471c-0.010 0.010-0.013 0.023-0.022 0.033-0.023 0.028-0.043 0.058-0.060 0.090-0.036 0.056-0.057 0.121-0.061 0.188-0.006 0.034-0.008 0.068-0.006 0.102 0.003 0.032 0.010 0.064 0.019 0.095 0.008 0.036 0.020 0.070 0.036 0.103 0.006 0.012 0.006 0.026 0.013 0.037 0.658 1.142 0.614 2.558-0.114 3.657-0.088 0.128-0.184 0.25-0.289 0.365-0.005 0.005-0.012 0.008-0.017 0.014-0.039 0.049-0.080 0.096-0.125 0.141l-0.008 0.009-0.011 0.010c-0.045 0.044-0.092 0.085-0.14 0.125-0.006 0.004-0.008 0.011-0.014 0.015-0.116 0.105-0.239 0.202-0.368 0.291-1.099 0.725-2.513 0.769-3.654 0.112-0.012-0.007-0.025-0.007-0.037-0.013-0.033-0.016-0.067-0.028-0.103-0.036-0.032-0.010-0.064-0.016-0.097-0.019-0.033-0.001-0.067 0.001-0.1 0.006-0.034 0.003-0.067 0.010-0.1 0.020-0.064 0.025-0.125 0.060-0.179 0.102-0.010 0.009-0.023 0.012-0.033 0.022l-0.472 0.471-0.754-0.754 0.49-0.49c0.008-0.008 0.010-0.019 0.018-0.027 0.027-0.031 0.049-0.065 0.067-0.101 0.014-0.024 0.027-0.050 0.037-0.076 0.011-0.037 0.019-0.075 0.022-0.114 0.013-0.065 0.008-0.132-0.015-0.194-0.007-0.032-0.017-0.063-0.031-0.093-0.005-0.012-0.005-0.024-0.012-0.036-0.166-0.295-0.285-0.615-0.353-0.947-0.336-1.571-2.018-3.995-3.47-5.867 0.52-0.649 1.043-1.271 1.542-1.841 1.94 1.519 4.433 3.257 6.047 3.601zM19.081 15.986c-0.329 0.329-0.794 0.824-1.326 1.422-0.005 0.006-0.012 0.008-0.017 0.014s-0.003 0.008-0.006 0.011c-2.133 2.4-5.394 6.484-5.879 8.762-0.068 0.331-0.187 0.649-0.353 0.943-0.006 0.011-0.005 0.022-0.011 0.032-0.015 0.034-0.027 0.070-0.034 0.107-0.021 0.063-0.024 0.131-0.011 0.197 0.003 0.033 0.010 0.067 0.020 0.099 0.027 0.064 0.062 0.124 0.103 0.179 0.008 0.009 0.011 0.020 0.019 0.029l0.491 0.49-0.755 0.752-0.471-0.471c-0.010-0.010-0.023-0.013-0.033-0.022-0.055-0.042-0.115-0.077-0.18-0.102-0.032-0.009-0.064-0.015-0.098-0.019-0.034-0.006-0.068-0.008-0.102-0.006-0.032 0.003-0.064 0.010-0.095 0.019-0.037 0.008-0.073 0.020-0.107 0.036-0.012 0.006-0.026 0.006-0.037 0.013-1.142 0.658-2.557 0.614-3.656-0.113-0.128-0.087-0.25-0.184-0.365-0.288-0.006-0.005-0.009-0.012-0.015-0.018-0.105-0.083-0.2-0.178-0.283-0.283-0.005-0.006-0.012-0.008-0.017-0.014-0.105-0.116-0.203-0.239-0.291-0.369-0.726-1.098-0.769-2.513-0.112-3.653 0.007-0.012 0.007-0.025 0.013-0.038 0.015-0.032 0.027-0.066 0.035-0.101 0.023-0.098 0.021-0.2-0.006-0.298-0.011-0.031-0.025-0.060-0.042-0.088-0.017-0.033-0.037-0.063-0.060-0.092-0.009-0.010-0.012-0.023-0.022-0.032l-0.471-0.471 0.755-0.754 0.489 0.49c0.045 0.044 0.098 0.079 0.156 0.104 0.014 0.007 0.029 0.013 0.044 0.018 0.056 0.021 0.116 0.033 0.177 0.034 0.060-0.001 0.12-0.013 0.177-0.034 0.015-0.005 0.029-0.011 0.043-0.018s0.029-0.009 0.043-0.017c0.295-0.166 0.615-0.286 0.947-0.354 1.642-0.349 4.225-2.143 6.439-3.918 0.006-0.005 0.013-0.006 0.019-0.011s0.004-0.007 0.007-0.010c0.8-0.644 1.551-1.28 2.191-1.847 0.654-0.58 1.198-1.087 1.547-1.44l1.58-1.575c0.156 0.074 0.302 0.166 0.438 0.272 0.017 0.014 0.034 0.030 0.053 0.044l0.008 0.006c0.056 0.048 0.112 0.095 0.166 0.148s0.101 0.11 0.148 0.166l0.004 0.005c0.014 0.019 0.028 0.036 0.044 0.053l0.009 0.012-0.013-0.012c0.008 0.012 0.021 0.026 0.032 0.041 0.042 0.053 0.084 0.112 0.12 0.171 0.041 0.067 0.078 0.136 0.112 0.206 0.003 0.006 0.006 0.011 0.009 0.018zM23.014 16.578c-0.1 0.1-0.236 0.157-0.377 0.157s-0.277-0.056-0.377-0.157l-0.194-0.195c-0.119-0.124-0.173-0.296-0.145-0.466 0-0.011 0-0.023 0.002-0.035 0.012-0.097 0.024-0.194 0.029-0.328v-0.020c0.003-0.090 0-0.18-0.006-0.267 0-0.014 0-0.029 0-0.044v-0.017c-0.017-0.267-0.065-0.531-0.145-0.787-0.005-0.019-0.007-0.034-0.013-0.053l-0.003-0.008c-0.034-0.103-0.076-0.203-0.12-0.303-0.005-0.012-0.010-0.026-0.014-0.037v-0.005c-0.010-0.020-0.018-0.041-0.028-0.062-0.026-0.058-0.055-0.114-0.088-0.168l-0.066-0.113c-0.011-0.018-0.020-0.037-0.031-0.053l-0.009-0.015c-0.053-0.077-0.107-0.16-0.163-0.231l-0.011-0.013c-0.026-0.035-0.053-0.068-0.080-0.102-0.072-0.090-0.149-0.177-0.23-0.259-0.107-0.105-0.221-0.204-0.341-0.295l-0.006-0.005c-0.009-0.007-0.018-0.015-0.027-0.022-0.033-0.025-0.068-0.053-0.107-0.077s-0.068-0.047-0.103-0.069c-0.022-0.014-0.040-0.027-0.064-0.043l-0.107-0.059c-0.064-0.036-0.13-0.069-0.196-0.101-0.019-0.009-0.040-0.022-0.058-0.030-0.009-0.004-0.020-0.007-0.029-0.011-0.098-0.044-0.199-0.084-0.302-0.118-0.019-0.007-0.035-0.014-0.053-0.021l-0.016-0.004c-0.155-0.047-0.313-0.084-0.472-0.109-0.027-0.005-0.053-0.008-0.076-0.011-0.089-0.012-0.179-0.021-0.267-0.027-0.058-0.005-0.115-0.007-0.167-0.008-0.013 0-0.027 0-0.040 0s-0.022 0-0.033 0h-0.132c-0.092 0.004-0.184 0.014-0.275 0.027h-0.008c-0.013 0-0.027 0-0.041 0.003-0.169 0.028-0.342-0.026-0.466-0.145l-0.194-0.194c-0.208-0.208-0.208-0.546 0-0.754l4.903-4.903 5.648 5.655zM30.179 9.412l-5.653-5.653 0.755-0.755 5.653 5.654z"></path>
<path d="M21.694 9.601c-0.729 0.729-0.729 1.911 0 2.64s1.911 0.729 2.64 0c0.729-0.729 0.729-1.911 0-2.64-0.73-0.728-1.911-0.727-2.641 0.001zM23.579 11.487c-0.312 0.313-0.819 0.312-1.131-0s-0.312-0.819 0-1.131 0.819-0.313 1.131-0c0.15 0.15 0.235 0.354 0.235 0.566s-0.084 0.416-0.235 0.566z"></path>
<path d="M6.773 23.77c-0.937 0.937-0.937 2.457 0 3.394s2.457 0.937 3.394 0c0.937-0.937 0.937-2.457 0-3.394-0.448-0.454-1.059-0.709-1.697-0.709s-1.249 0.255-1.697 0.709zM9.413 26.41c-0.528 0.502-1.358 0.502-1.886 0-0.521-0.521-0.521-1.365 0-1.886s1.365-0.521 1.886 0c0.521 0.52 0.521 1.365 0 1.886z"></path>
</symbol>
<symbol id="icon-exhaust" viewBox="0 0 32 32">
<title>exhaust</title>
<path d="M8.774 9.653c-0.602-0.313-1.317-0.322-1.927-0.025-0.018-0.083-0.040-0.165-0.067-0.245-0.377-1.121-1.592-1.724-2.713-1.347-0.62 0.209-1.11 0.689-1.332 1.304-1.137-0.328-2.323 0.328-2.651 1.465-0.247 0.857 0.063 1.778 0.779 2.311-0.507 1.057-0.071 2.325 0.979 2.845 0.59 0.29 1.282 0.29 1.872 0 0.23 1.157 1.354 1.908 2.511 1.679 0.655-0.13 1.211-0.559 1.503-1.159 0.102-0.232-0.003-0.503-0.235-0.605-0.216-0.095-0.469-0.011-0.585 0.195-0.339 0.585-1.087 0.785-1.672 0.446-0.481-0.279-0.714-0.846-0.567-1.382 0.063-0.219-0.031-0.453-0.226-0.569-0.209-0.122-0.477-0.060-0.612 0.141-0.363 0.57-1.119 0.739-1.689 0.376-0.537-0.341-0.723-1.037-0.428-1.6 0.044-0.085 0.097-0.166 0.159-0.239 0.084-0.114 0.111-0.261 0.073-0.398-0.039-0.142-0.14-0.259-0.275-0.318-0.619-0.272-0.9-0.994-0.628-1.613s0.994-0.9 1.613-0.628c0.042 0.018 0.083 0.039 0.122 0.062l0.061 0.043c0.216 0.132 0.499 0.064 0.631-0.152 0.040-0.065 0.063-0.139 0.067-0.215 0.039-0.675 0.617-1.19 1.292-1.152s1.19 0.617 1.152 1.292c-0.009 0.164-0.052 0.324-0.125 0.472-0.032 0.063-0.048 0.132-0.049 0.202 0.002 0.254 0.21 0.457 0.463 0.455 0.172-0.002 0.329-0.099 0.406-0.253 0.282-0.614 1.009-0.883 1.623-0.601s0.883 1.009 0.601 1.623c-0.010 0.023-0.022 0.045-0.034 0.068-0.124 0.221-0.046 0.501 0.175 0.625s0.501 0.046 0.625-0.175c0.007-0.013 0.014-0.027 0.020-0.041 0.546-1.050 0.137-2.343-0.912-2.888z"></path>
<path d="M31.99 16.537c-0.138-2.093-1.358-3.963-3.219-4.932l0.269-0.551c0.124-0.221 0.046-0.501-0.175-0.625s-0.501-0.046-0.625 0.175c-0.007 0.013-0.014 0.027-0.020 0.041l-0.465 0.936-0.728 1.469-0.49 0.863c-0.11 0.226-0.018 0.5 0.208 0.612 0.226 0.11 0.5 0.018 0.612-0.208l0.226-0.453c1.726 1.011 2.324 3.218 1.346 4.963-0.796 1.836-2.916 2.696-4.767 1.934l0.214-0.428c0.141-0.27 0.169-0.584 0.080-0.875-0.068-0.212-0.217-0.389-0.416-0.49l-11.4-5.636c-0.244-0.124-0.533-0.124-0.777 0-0.22 0.121-0.397 0.307-0.508 0.532l-0.135 0.275-0.991-0.496c-0.226-0.11-0.5-0.018-0.612 0.208l-0.012 0.024-0.863 1.738c-0.11 0.226-0.018 0.5 0.208 0.612l0.991 0.496-0.135 0.275c-0.104 0.228-0.136 0.482-0.092 0.728 0.047 0.264 0.215 0.49 0.453 0.612l11.406 5.654c0.112 0.056 0.236 0.085 0.361 0.086 0.4-0.015 0.758-0.251 0.93-0.612l0.19-0.386c0.825 0.366 1.716 0.562 2.619 0.575 1.16 0 2.294-0.347 3.255-0.997 2.025-1.359 3.187-3.683 3.060-6.119zM9.717 15.613l0.508-0.918 0.612 0.288-0.508 0.918-0.612-0.288zM22.946 21.163l-0.563 1.132-0.386 0.777c-0.023 0.049-0.059 0.092-0.104 0.122l-11.296-5.611c-0.002-0.053 0.011-0.106 0.037-0.153l0.337-0.685 0.428-0.869 0.765-1.579c0.025-0.050 0.063-0.092 0.11-0.122l11.32 5.611c0.002 0.053-0.011 0.106-0.037 0.153l-0.612 1.224zM28.405 21.867c-1.478 0.975-3.355 1.116-4.963 0.373l0.281-0.575 0.067-0.055c2.305 0.969 4.963-0.073 5.997-2.35 0.55-1.070 0.688-2.305 0.386-3.47-0.325-1.155-1.096-2.135-2.142-2.723l0.288-0.575 0.037-0.067c1.563 0.83 2.585 2.408 2.705 4.173 0.083 2.097-0.921 4.088-2.656 5.269z"></path>
</symbol>
<symbol id="icon-key" viewBox="0 0 32 32">
<title>key</title>
<path d="M30.032 7.011l-5.723-5.746c-1.687-1.687-3.716-1.687-5.396 0l-8.6 8.615c-0.552 0.551-0.553 1.445-0.002 1.997 0.001 0.001 0.002 0.002 0.002 0.002l1.933 1.933-2.282 2.26c-0.217 0.218-0.217 0.57 0 0.788l0.58 0.58-9.663 9.663c-0.103 0.103-0.161 0.241-0.164 0.387l-0.015 3.947c-0.004 0.308 0.242 0.561 0.55 0.565 0.002 0 0.005 0 0.008 0v-0.015h3.122c0.148-0 0.29-0.059 0.394-0.164l1.754-1.754c0.101-0.101 0.16-0.236 0.164-0.379l0.052-1.791 1.487 0.186c0.169 0.021 0.339-0.036 0.461-0.156l1.107-1.108c0.093-0.091 0.151-0.212 0.164-0.342l0.156-1.613 1.947-0.431c0.221-0.048 0.391-0.224 0.431-0.446l0.386-2.148 2.081-0.327c0.115-0.019 0.222-0.073 0.305-0.156l2.274-2.274 1.933 1.933c0.551 0.552 1.445 0.553 1.997 0.002 0.001-0.001 0.002-0.002 0.002-0.002l8.555-8.607c1.687-1.687 1.687-3.716 0-5.396zM14.602 20.449l-2.289 0.364c-0.235 0.038-0.419 0.22-0.461 0.453l-0.401 2.148-1.977 0.439c-0.235 0.053-0.408 0.251-0.431 0.491l-0.178 1.821-0.743 0.743-1.873-0.201c-0.306-0.037-0.583 0.181-0.621 0.486-0.002 0.016-0.003 0.033-0.004 0.049l-0.059 2.185-1.435 1.435h-2.341l0.089-3.144 9.856-9.886c0.217-0.218 0.217-0.57 0-0.788l-0.58-0.58 1.88-1.88 3.716 3.716-2.148 2.148zM29.289 11.619l-8.622 8.592c-0.115 0.117-0.303 0.118-0.42 0.003-0.001-0.001-0.002-0.002-0.003-0.003l-2.326-2.319-6.786-6.786c-0.139-0.087-0.182-0.27-0.095-0.41 0.017-0.028 0.039-0.053 0.065-0.073l8.6-8.57c0.48-0.558 1.168-0.896 1.903-0.937 0.738 0.047 1.427 0.384 1.918 0.937l5.768 5.746c0.87 0.87 1.576 2.23 0 3.82z"></path>
<path d="M26.871 9.67c-0.009-0.010-0.018-0.019-0.028-0.028l-5.166-5.166c-0.21-0.225-0.563-0.238-0.788-0.028s-0.238 0.563-0.028 0.788c0.009 0.010 0.018 0.019 0.028 0.028l5.166 5.166c0.21 0.225 0.563 0.238 0.788 0.028s0.238-0.563 0.028-0.788z"></path>
</symbol>
<symbol id="icon-gas" viewBox="0 0 32 32">
<title>gas</title>
<path d="M28.157 4.749c0.259 0 0.469-0.21 0.469-0.469v-1.619c0-0.755-0.614-1.369-1.369-1.369-13.564 0-12.733-0.059-12.929 0.137l-2.683 2.683-0.432-0.432c0.383-0.415 0.366-1.052-0.029-1.447l-1.928-1.928c-0.198-0.198-0.46-0.306-0.74-0.306s-0.542 0.109-0.74 0.306l-4.095 4.095c-0.408 0.408-0.408 1.072 0 1.48l1.928 1.928c0.198 0.198 0.46 0.306 0.74 0.306 0.265 0 0.514-0.099 0.707-0.277l0.432 0.432c-3.375 3.375-3.271 3.195-3.271 3.465v18.896c0 0.755 0.614 1.369 1.369 1.369h21.671c0.755 0 1.369-0.614 1.369-1.369v-24.788c0-0.259-0.21-0.469-0.469-0.469s-0.469 0.21-0.469 0.469v24.788c0 0.238-0.193 0.431-0.431 0.431h-21.671c-0.238 0-0.431-0.193-0.431-0.431v-18.702c0.418-0.418 9.698-9.699 9.698-9.699h12.403c0.238 0 0.431 0.193 0.431 0.431v1.619c0 0.259 0.21 0.469 0.469 0.469zM8.515 0.938c0.021 0 0.050 0.005 0.077 0.032 1.988 1.988 2.036 1.975 1.928 2.082l-0.248 0.248-2.082-2.082c0.258-0.258 0.262-0.28 0.325-0.28zM7.527 1.88l2.082 2.082-0.305 0.305-2.082-2.082 0.305-0.305zM6.56 2.848l2.082 2.082-0.305 0.305-2.082-2.082 0.305-0.305zM6.349 7.178c-0.021 0-0.051-0.006-0.077-0.032l-1.928-1.928c-0.042-0.043-0.043-0.111-0-0.154l0.281-0.281 2.082 2.082c-0.295 0.295-0.296 0.313-0.358 0.313zM7.37 6.202l-2.082-2.082 0.305-0.305 2.082 2.082-0.305 0.305zM8.151 7.607l-0.43-0.43c0.273-0.273 2.479-2.479 2.831-2.831l0.43 0.43-2.831 2.831z"></path>
<path d="M24.419 3.893h-7.584c-0.995 0-1.805 0.81-1.805 1.805s0.81 1.805 1.805 1.805h7.584c0.995 0 1.805-0.81 1.805-1.805s-0.81-1.805-1.805-1.805zM24.419 6.564h-7.584c-0.478 0-0.867-0.389-0.867-0.867s0.389-0.867 0.867-0.867h7.584c0.478 0 0.867 0.389 0.867 0.867s-0.389 0.867-0.867 0.867z"></path>
<path d="M24.658 26.288l-6.42-7.032 4.090-4.48c0.175-0.191 0.161-0.488-0.030-0.662s-0.488-0.161-0.662 0.030l-4.379 4.796c-0.163 0.179-0.163 0.453 0 0.632 7.26 7.952 6.799 7.389 6.79 7.573-0.013 0.279-0.357 0.4-0.543 0.197l-6.613-7.243c-0.186-0.204-0.507-0.203-0.692 0-7.151 7.832-6.646 7.345-6.844 7.345-0.269 0-0.415-0.322-0.231-0.523l6.709-7.348c0.163-0.179 0.163-0.453 0-0.632-7.26-7.952-6.799-7.389-6.79-7.573 0.004-0.083 0.040-0.16 0.102-0.217s0.142-0.085 0.225-0.081c0.083 0.004 0.16 0.040 0.217 0.101 7.103 7.78 6.663 7.396 6.959 7.396s-0.149 0.389 6.959-7.396c0.114-0.125 0.311-0.139 0.441-0.020 0.128 0.116 0.137 0.314 0.020 0.441l-1.298 1.422c-0.175 0.191-0.161 0.488 0.030 0.662s0.488 0.161 0.662-0.030l1.298-1.422c0.466-0.51 0.43-1.3-0.080-1.766-0.516-0.471-1.305-0.425-1.766 0.080l-6.266 6.864-6.267-6.864c-0.752-0.823-2.122-0.319-2.172 0.786-0.015 0.334 0.1 0.653 0.326 0.9l6.42 7.032-6.42 7.032c-0.727 0.796-0.167 2.093 0.923 2.093 0.351 0 0.687-0.148 0.923-0.407l6.266-6.864 6.266 6.864c0.236 0.259 0.573 0.407 0.923 0.407 1.091 0 1.649-1.298 0.923-2.093z"></path>
<path d="M20.457 28.783h-7.825c-0.259 0-0.469 0.21-0.469 0.469s0.21 0.469 0.469 0.469h7.825c0.259 0 0.469-0.21 0.469-0.469s-0.21-0.469-0.469-0.469z"></path>
</symbol>
<symbol id="icon-cafe" viewBox="0 0 32 32">
<title>cafe</title>
<path d="M26.5 15c-0.001 0-0.002 0-0.003 0-0.477 0-0.937 0.074-1.368 0.212l0.032-0.009-0.661-1.322v-0.382h1.5c0.276 0 0.5-0.224 0.5-0.5v0-3c0-0.276-0.224-0.5-0.5-0.5v0h-1.5v-1c0-0.276-0.224-0.5-0.5-0.5v0h-5v1h2.5v2h-1v-0.5c0-0.276-0.224-0.5-0.5-0.5v0h-3c-0.057 0-0.111 0.010-0.162 0.027l0.004-0.001-3 1c-0.2 0.068-0.342 0.255-0.342 0.474v0.5h-4.5c-0.828 0-1.5 0.672-1.5 1.5v0 0.469c-0.067-0.003-0.145-0.004-0.223-0.004-2.152 0-4.050 1.084-5.179 2.736l-0.014 0.022 0.832 0.555c0.985-1.407 2.598-2.315 4.423-2.315 0.208 0 0.414 0.012 0.616 0.035l-0.025-0.002v-0.008c0.019 0.005 0.043 0.010 0.067 0.013l0.003 0h0.723l-0.537 1.182c-0.354-0.115-0.761-0.181-1.184-0.181-0.001 0-0.001 0-0.002 0h0c-1.85 0.007-3.404 1.265-3.861 2.972l-0.006 0.028h-1.633c-0.276 0-0.5 0.224-0.5 0.5v0 2c0 0.276 0.224 0.5 0.5 0.5v0h2.050c0.699 1.202 1.982 1.998 3.45 1.998s2.751-0.795 3.44-1.979l0.010-0.019h9.050c0.828 0 1.5-0.672 1.5-1.5v0-5.5h2.941l0.305 0.611c-1.343 0.793-2.23 2.233-2.23 3.881 0 2.481 2.011 4.491 4.492 4.491s4.492-2.011 4.492-4.492c0-2.481-2.011-4.492-4.492-4.492-0.003 0-0.006 0-0.009 0h0zM25.5 10.5v2h-1v-2zM22.5 9h1v2h-1zM14.5 11.861l2.581-0.861h2.419v3h-5zM8.5 13.5c0-0.276 0.224-0.5 0.5-0.5v0h4.5v1h-5zM12 15v4h-1.133c-0.269-1.022-0.904-1.864-1.753-2.397l-0.017-0.010 0.725-1.594zM8.727 19c-0.127-0.216-0.285-0.398-0.471-0.547l-0.004-0.003 0.424-0.931c0.524 0.358 0.923 0.865 1.138 1.461l0.007 0.021zM7 17c0.273 0 0.537 0.037 0.787 0.105l-0.021-0.005-0.425 0.934c-0.102-0.020-0.22-0.033-0.34-0.035h-0.001c-0 0-0.001 0-0.001 0-0.735 0-1.376 0.398-1.721 0.991l-0.005 0.009h-1.096c0.426-1.172 1.527-1.995 2.821-2h0.001zM2 20h10v1h-10zM7 23c-0.005 0-0.011 0-0.017 0-0.883 0-1.675-0.385-2.219-0.997l-0.003-0.003h4.477c-0.546 0.615-1.339 1-2.222 1-0.006 0-0.012-0-0.018-0h0.001zM13 21v-3h4.5v3zM19.5 21h-1v-3h1.5v2.5c0 0.276-0.224 0.5-0.5 0.5v0zM20 17h-7v-2h7zM23.5 14h-3v-2h3zM26.5 23c-0.001 0-0.002 0-0.003 0-1.931 0-3.497-1.565-3.497-3.497 0-1.265 0.672-2.373 1.678-2.987l0.015-0.009 0.45 0.9c-0.683 0.452-1.127 1.217-1.127 2.086 0 1.377 1.116 2.494 2.494 2.494s2.494-1.116 2.494-2.494c0-1.377-1.116-2.494-2.494-2.494-0.004 0-0.007 0-0.011 0h0.001c-0.15 0.002-0.295 0.018-0.435 0.045l0.016-0.003-0.463-0.925c0.269-0.074 0.578-0.117 0.897-0.117 1.933 0 3.5 1.567 3.5 3.5s-1.567 3.5-3.5 3.5c-0.005 0-0.010 0-0.016-0h0.001zM26.55 20.224l0.895-0.447-0.886-1.77c0.806 0.032 1.448 0.693 1.448 1.504 0 0.831-0.674 1.505-1.505 1.505s-1.505-0.674-1.505-1.505c0-0.488 0.233-0.922 0.593-1.197l0.004-0.003z"></path>
<path d="M17.5 12h1v1h-1v-1z"></path>
<path d="M20.5 23h2v1h-2v-1z"></path>
<path d="M18.5 23h1v1h-1v-1z"></path>
<path d="M11 23h1.5v1h-1.5v-1z"></path>
</symbol>
<symbol id="icon-bobber" viewBox="0 0 32 32">
<title>bobber</title>
<path d="M26.656 13.966h-1.132c-0.73 0-1.443 0.151-2.098 0.43 0.001-0.036 0.004-0.072 0.004-0.109 0-0.676-0.55-1.226-1.226-1.226h-1.923c-0.252 0-0.503-0.083-0.705-0.234l-0.508-0.379c-0.314-0.235-0.702-0.334-1.091-0.277s-0.732 0.261-0.967 0.575l-0.018 0.024-3.276-2.415c-0.565-0.417-1.281-0.584-1.972-0.465l0.517-0.821c0.002-0.003 0.003-0.005 0.005-0.008 0.147-0.244 0.438-0.347 0.699-0.261-0.064 0.48 0.164 0.973 0.612 1.222l1.632 0.907c0.18 0.1 0.383 0.153 0.588 0.153 0.44 0 0.847-0.239 1.061-0.624 0.324-0.584 0.113-1.324-0.471-1.649l-1.633-0.907c-0.429-0.238-0.94-0.187-1.311 0.088-0.709-0.342-1.56-0.095-1.974 0.586l-0.463 0.736c-0.189-0.377-0.51-0.679-0.928-0.849l-1.289-0.525c-0.225-0.092-0.479-0.065-0.681 0.070s-0.322 0.362-0.322 0.604v3.028c0 0.52 0.566 0.852 1.003 0.675l0.438-0.179-1.422 2.258c-0.693-0.329-1.467-0.513-2.284-0.513h-1.133c-1.684 0-3.236 0.77-4.258 2.112-0.149 0.196-0.174 0.454-0.064 0.675s0.331 0.358 0.577 0.358h0.653c-0.588 0.784-0.913 1.742-0.913 2.747 0 2.528 2.056 4.584 4.584 4.584 1.737 0 3.307-0.972 4.086-2.503h1.175c0.355 0 0.644-0.289 0.644-0.644v-1.98c0-1.801-0.895-3.395-2.262-4.365l1.362-2.162 1.938 7.907c-0.174 0.068-0.298 0.237-0.298 0.435 0 0.258 0.209 0.467 0.467 0.467h0.070c0.299 0.769 1.039 1.286 1.883 1.286h5.531c0.852 0 1.617-0.539 1.903-1.341l0.195-0.546c0.508 1.979 2.306 3.446 4.441 3.446 2.528 0 4.584-2.056 4.584-4.584 0-0.012-0.001-0.024-0.001-0.036h0.669c0.175 0 0.345-0.073 0.466-0.199s0.186-0.3 0.177-0.476c-0.135-2.857-2.482-5.095-5.343-5.095zM13.922 8.826c0.051-0.092 0.147-0.144 0.245-0.144 0.046 0 0.092 0.011 0.135 0.035l1.632 0.907c0.135 0.075 0.184 0.246 0.109 0.381-0.049 0.089-0.143 0.144-0.245 0.144-0.048 0-0.093-0.012-0.135-0.035l-1.632-0.907c-0.135-0.075-0.184-0.246-0.109-0.38zM8.719 11.335v-2.419l1.007 0.41c0.337 0.137 0.538 0.436 0.538 0.8s-0.201 0.662-0.538 0.8zM4.969 23.423c-2.013 0-3.651-1.638-3.651-3.652 0-1.059 0.453-2.052 1.247-2.747h0.153c0.258 0 0.467-0.209 0.467-0.467s-0.209-0.466-0.467-0.466h-1.438c0.823-0.82 1.927-1.28 3.11-1.28h1.132c0.634 0 1.237 0.135 1.782 0.377l-0.785 1.247c-0.476-0.22-1.005-0.344-1.563-0.344-0.258 0-0.467 0.209-0.467 0.466s0.209 0.467 0.467 0.467c0.375 0 0.733 0.074 1.060 0.209l-0.12 0.19c-0.287-0.114-0.6-0.177-0.928-0.177-1.392 0-2.525 1.133-2.525 2.525s1.133 2.525 2.525 2.525 2.525-1.133 2.525-2.525c0-0.73-0.312-1.389-0.809-1.85l0.123-0.195c0.583 0.514 0.951 1.266 0.951 2.102v0.79c0 0.363 0.158 0.689 0.408 0.915-0.637 1.159-1.855 1.89-3.199 1.89zM6.562 19.772c0 0.878-0.714 1.593-1.593 1.593s-1.593-0.714-1.593-1.593c0-0.878 0.714-1.592 1.593-1.592 0.144 0 0.284 0.020 0.417 0.056l-0.811 1.288c-0.137 0.218-0.072 0.506 0.146 0.643 0.077 0.049 0.163 0.072 0.248 0.072 0.155 0 0.306-0.077 0.395-0.218l0.811-1.287c0.241 0.279 0.387 0.642 0.387 1.039zM9.94 19.23v1.69h-0.946c-0.166 0-0.302-0.136-0.302-0.302v-0.79c0-1.169-0.54-2.213-1.383-2.899l0.803-1.275c1.106 0.804 1.827 2.106 1.827 3.575zM12.209 10.784c0.341 0.004 0.671 0.114 0.954 0.322l3.352 2.471h-4.188c-0.816 0-1.481-0.664-1.482-1.48l-0.001-0.624c0.312-0.437 0.828-0.695 1.366-0.688zM15.583 16.105c0 0.609-0.495 1.104-1.104 1.104s-1.104-0.495-1.104-1.104 0.495-1.104 1.104-1.104c0.609 0 1.104 0.495 1.104 1.104zM19.564 21.865h-5.531c-0.315 0-0.603-0.134-0.804-0.354h6.137c0.258 0 0.466-0.209 0.466-0.467s-0.209-0.466-0.466-0.466h-6.502l-1.542-6.288c0.306 0.141 0.646 0.22 1.004 0.22h0.888c-0.47 0.374-0.772 0.949-0.772 1.595 0 1.123 0.914 2.037 2.037 2.037s2.037-0.914 2.037-2.037c0-0.646-0.302-1.221-0.772-1.595h1.087c0.237 0 0.45-0.095 0.601-0.256l2.017 1.487c0.207 0.153 0.5 0.109 0.652-0.099s0.109-0.499-0.099-0.652l-2.26-1.666 0.014-0.019c0.086-0.115 0.211-0.19 0.354-0.21s0.283 0.015 0.398 0.101l0.508 0.379c0.363 0.271 0.811 0.419 1.263 0.419h1.923c0.162 0 0.293 0.132 0.293 0.293 0 0.262-0.063 0.52-0.183 0.751-0.443 0.333-0.838 0.735-1.165 1.199-0.232 0.33-0.16 0.778 0.165 1.021l0.523 0.39-0.579 1.621h-4.241c-0.012 0-0.048 0-0.070-0.043s0.001-0.072 0.008-0.082l1.108-1.44c0.157-0.204 0.119-0.497-0.085-0.654s-0.497-0.119-0.654 0.085l-1.109 1.44c-0.237 0.307-0.277 0.714-0.106 1.063s0.519 0.564 0.907 0.564h3.907l-0.335 0.939c-0.154 0.432-0.566 0.722-1.025 0.722zM26.103 23.423c-1.867 0-3.411-1.409-3.625-3.22h1.137c0.205 1.188 1.242 2.094 2.488 2.094 1.392 0 2.525-1.133 2.525-2.525s-1.133-2.525-2.525-2.525c-1.221 0-2.242 0.871-2.475 2.024h-1.142c0.045-0.324 0.133-0.641 0.262-0.941l0.065 0.048c0.327 0.244 0.792 0.178 1.037-0.147 0.536-0.711 1.352-1.118 2.24-1.118 1.162 0 2.217 0.731 2.625 1.82 0.166 0.444 0.575 0.753 1.039 0.798 0 0.014 0.001 0.028 0.001 0.042 0 2.013-1.638 3.652-3.651 3.652zM27.636 20.203c-0.189 0.669-0.804 1.161-1.533 1.161s-1.344-0.492-1.533-1.161zM24.592 19.27c0.211-0.633 0.808-1.091 1.511-1.091s1.301 0.458 1.511 1.091zM29.871 18.803c-0.125 0-0.239-0.080-0.283-0.198-0.543-1.451-1.949-2.426-3.499-2.426-1.12 0-2.154 0.486-2.867 1.341l-1.2-0.896c0.835-1.084 2.13-1.725 3.501-1.725h1.132c2.261 0 4.133 1.692 4.387 3.904z"></path>
<path d="M15.078 19.27c0 0.331-0.268 0.598-0.598 0.598s-0.599-0.268-0.599-0.598 0.268-0.598 0.599-0.598c0.33 0 0.598 0.268 0.598 0.598z"></path>
</symbol>
<symbol id="icon-wrench" viewBox="0 0 32 32">
<title>wrench</title>
<path d="M30.897 2.913l-1.923-1.923c-1.254-1.254-3.367-1.327-4.71-0.162l-3.379 2.929c-0.043 0.038-0.080 0.082-0.11 0.131l-3.29 5.48-2.112 0.704c-0.178 0.059-0.313 0.207-0.357 0.39s0.011 0.375 0.144 0.508l5.757 5.756c0.103 0.103 0.242 0.159 0.384 0.159 0.042 0 0.083-0.005 0.125-0.015 0.183-0.043 0.331-0.178 0.39-0.357l0.704-2.113 5.56-3.357c0.049-0.030 0.093-0.067 0.13-0.11l2.86-3.314c1.158-1.342 1.080-3.453-0.174-4.707zM30.249 6.911l-2.804 3.249-5.657 3.416c-0.11 0.067-0.194 0.171-0.234 0.293l-0.49 1.47-1.297-1.297c-0-0-0-0.001-0.001-0.001l-1.919-1.919c-0-0-0-0-0.001-0.001l-1.297-1.297 1.47-0.49c0.123-0.041 0.227-0.124 0.294-0.236l3.349-5.578 3.314-2.873c0.922-0.799 2.372-0.75 3.232 0.11l1.923 1.923c0.86 0.86 0.914 2.309 0.119 3.23z"></path>
<path d="M29.358 21.808c-1.593-1.593-3.939-2.147-6.064-1.458l-11.534-11.534c0.689-2.125 0.135-4.47-1.458-6.064-1.679-1.679-4.192-2.204-6.403-1.337-0.17 0.067-0.296 0.215-0.333 0.394s0.018 0.365 0.147 0.495l3.453 3.453-2.303 2.303-3.453-3.453c-0.13-0.129-0.315-0.185-0.495-0.147s-0.328 0.163-0.394 0.333c-0.866 2.211-0.341 4.724 1.337 6.403 1.593 1.593 3.939 2.147 6.064 1.458l4.313 4.313-5.371 5.371-3.416 1.91c-0.095 0.053-0.172 0.134-0.221 0.231l-1.535 3.070c-0.105 0.209-0.064 0.461 0.102 0.627l1.919 1.919c0.104 0.104 0.243 0.159 0.384 0.159 0.082 0 0.165-0.019 0.243-0.057l3.070-1.535c0.097-0.049 0.178-0.126 0.231-0.221l1.91-3.416 5.371-5.371 4.535 4.535c-0.689 2.125-0.135 4.47 1.459 6.064 1.141 1.141 2.668 1.749 4.224 1.749 0.732-0 1.471-0.135 2.179-0.412 0.17-0.067 0.296-0.215 0.333-0.394s-0.018-0.365-0.148-0.495l-3.453-3.453 2.303-2.303 3.453 3.453c0.13 0.13 0.315 0.185 0.495 0.148s0.328-0.163 0.394-0.333c0.866-2.211 0.341-4.724-1.337-6.403zM8.73 24.308c-0.035 0.035-0.066 0.075-0.090 0.119l-1.865 3.336-2.571 1.285-1.366-1.366 1.285-2.571 3.336-1.865c0.044-0.024 0.084-0.055 0.119-0.090l5.424-5.424 1.151 1.151-5.424 5.424zM29.929 26.983l-3.191-3.191c-0.212-0.212-0.556-0.212-0.768 0l-3.070 3.070c-0.102 0.102-0.159 0.24-0.159 0.384s0.057 0.282 0.159 0.384l3.191 3.191c-1.582 0.314-3.241-0.171-4.408-1.338-1.374-1.374-1.803-3.43-1.094-5.239 0.079-0.201 0.031-0.429-0.122-0.582l-12.020-12.020c-0.104-0.104-0.243-0.159-0.384-0.159-0.066 0-0.134 0.012-0.198 0.037-1.809 0.709-3.866 0.279-5.239-1.094-1.167-1.167-1.652-2.826-1.338-4.408l3.191 3.191c0.212 0.212 0.556 0.212 0.768 0l3.070-3.070c0.212-0.212 0.212-0.556 0-0.768l-3.191-3.191c1.582-0.315 3.241 0.171 4.408 1.338 1.374 1.374 1.803 3.43 1.094 5.239-0.079 0.201-0.031 0.429 0.121 0.582l12.020 12.020c0.153 0.152 0.381 0.2 0.582 0.122 1.809-0.709 3.866-0.279 5.239 1.094 1.167 1.167 1.652 2.826 1.338 4.408z"></path>
</symbol>
<symbol id="icon-key1" viewBox="0 0 14 20">
<title>key1</title>
<path d="M29.358 21.808c-1.593-1.593-3.939-2.147-6.064-1.458l-11.534-11.534c0.689-2.125 0.135-4.47-1.458-6.064-1.679-1.679-4.192-2.204-6.403-1.337-0.17 0.067-0.296 0.215-0.333 0.394s0.018 0.365 0.147 0.495l3.453 3.453-2.303 2.303-3.453-3.453c-0.13-0.129-0.315-0.185-0.495-0.147s-0.328 0.163-0.394 0.333c-0.866 2.211-0.341 4.724 1.337 6.403 1.593 1.593 3.939 2.147 6.064 1.458l4.313 4.313-5.371 5.371-3.416 1.91c-0.095 0.053-0.172 0.134-0.221 0.231l-1.535 3.070c-0.105 0.209-0.064 0.461 0.102 0.627l1.919 1.919c0.104 0.104 0.243 0.159 0.384 0.159 0.082 0 0.165-0.019 0.243-0.057l3.070-1.535c0.097-0.049 0.178-0.126 0.231-0.221l1.91-3.416 5.371-5.371 4.535 4.535c-0.689 2.125-0.135 4.47 1.459 6.064 1.141 1.141 2.668 1.749 4.224 1.749 0.732-0 1.471-0.135 2.179-0.412 0.17-0.067 0.296-0.215 0.333-0.394s-0.018-0.365-0.148-0.495l-3.453-3.453 2.303-2.303 3.453 3.453c0.13 0.13 0.315 0.185 0.495 0.148s0.328-0.163 0.394-0.333c0.866-2.211 0.341-4.724-1.337-6.403zM8.73 24.308c-0.035 0.035-0.066 0.075-0.090 0.119l-1.865 3.336-2.571 1.285-1.366-1.366 1.285-2.571 3.336-1.865c0.044-0.024 0.084-0.055 0.119-0.090l5.424-5.424 1.151 1.151-5.424 5.424zM29.929 26.983l-3.191-3.191c-0.212-0.212-0.556-0.212-0.768 0l-3.070 3.070c-0.102 0.102-0.159 0.24-0.159 0.384s0.057 0.282 0.159 0.384l3.191 3.191c-1.582 0.314-3.241-0.171-4.408-1.338-1.374-1.374-1.803-3.43-1.094-5.239 0.079-0.201 0.031-0.429-0.122-0.582l-12.020-12.020c-0.104-0.104-0.243-0.159-0.384-0.159-0.066 0-0.134 0.012-0.198 0.037-1.809 0.709-3.866 0.279-5.239-1.094-1.167-1.167-1.652-2.826-1.338-4.408l3.191 3.191c0.212 0.212 0.556 0.212 0.768 0l3.070-3.070c0.212-0.212 0.212-0.556 0-0.768l-3.191-3.191c1.582-0.315 3.241 0.171 4.408 1.338 1.374 1.374 1.803 3.43 1.094 5.239-0.079 0.201-0.031 0.429 0.121 0.582l12.020 12.020c0.153 0.152 0.381 0.2 0.582 0.122 1.809-0.709 3.866-0.279 5.239 1.094 1.167 1.167 1.652 2.826 1.338 4.408z"></path>
</symbol>
</defs>
</svg>
